<?xml version="1.0" standalone="no"?>
<!DOCTYPE svg PUBLIC "-//W3C//DTD SVG 20010904//EN"
 "http://www.w3.org/TR/2001/REC-SVG-20010904/DTD/svg10.dtd">
<svg version="1.0" xmlns="http://www.w3.org/2000/svg"
 width="1280.000000pt" height="853.000000pt" viewBox="0 0 1280.000000 853.000000"
 preserveAspectRatio="xMidYMid meet">

<g transform="translate(0.000000,853.000000) scale(0.100000,-0.100000)"
fill="#000000" stroke="none">
<path d="M0 4265 l0 -4265 6400 0 6400 0 0 4265 0 4265 -6400 0 -6400 0 0
-4265z m8107 2240 c151 -20 169 -25 151 -37 -9 -7 -7 -7 7 -2 52 21 271 -14
495 -79 147 -43 313 -98 375 -124 125 -52 222 -96 270 -121 28 -15 93 -49 146
-77 92 -47 202 -122 258 -174 14 -13 18 -18 9 -11 -27 19 -21 6 9 -21 15 -13
21 -16 14 -6 -7 9 -11 17 -8 17 27 0 315 -235 303 -248 -3 -2 2 -19 11 -36 13
-26 17 -28 22 -13 6 16 7 16 23 -2 15 -18 15 -20 0 -27 -9 -4 -21 -6 -26 -5
-16 4 18 -32 49 -51 17 -10 24 -18 17 -18 -7 0 -10 -5 -7 -10 4 -6 10 -8 14
-5 17 10 66 -69 54 -88 -4 -7 2 -5 12 3 12 10 16 10 11 2 -9 -16 12 -44 27
-35 5 3 7 1 4 -4 -4 -6 0 -13 8 -17 8 -3 15 -13 15 -23 0 -15 -2 -16 -10 -3
-8 12 -10 10 -10 -10 -1 -24 -1 -24 -14 5 -8 19 -15 25 -20 17 -4 -7 -3 -12 2
-12 5 0 12 -9 15 -20 4 -14 10 -18 23 -13 14 5 16 2 11 -16 -3 -13 -3 -20 0
-17 4 3 15 -2 26 -11 10 -10 21 -17 23 -15 12 7 22 -1 33 -24 18 -40 5 -41
-19 -3 -13 21 -19 26 -15 12 3 -12 1 -24 -6 -29 -7 -4 -9 -3 -6 2 3 5 -4 21
-15 34 -11 14 -17 19 -13 13 3 -7 8 -23 10 -35 3 -12 8 -24 12 -27 5 -3 14
-18 20 -33 7 -16 17 -28 22 -28 5 0 12 -7 15 -16 4 -10 2 -13 -7 -7 -6 4 -4
-5 6 -20 16 -25 16 -26 0 -21 -15 5 -14 2 3 -13 26 -23 44 -56 44 -79 0 -10 7
-26 17 -36 18 -20 5 -25 -16 -5 -11 10 -12 9 -3 -8 6 -12 21 -20 36 -20 21 -1
25 3 20 18 -4 13 -2 17 5 13 16 -10 14 -31 -4 -46 -11 -9 -15 -9 -15 -1 0 7
-5 9 -11 6 -7 -5 -5 -13 5 -24 18 -20 21 -46 4 -35 -7 4 -8 3 -4 -5 4 -6 12
-9 17 -6 5 4 9 2 9 -3 0 -5 9 -19 19 -31 14 -16 21 -18 25 -9 3 7 3 1 -1 -15
-3 -16 0 -34 8 -44 12 -14 12 -16 -1 -8 -12 7 -12 5 1 -11 18 -21 33 -55 31
-66 -1 -5 2 -8 8 -8 5 0 6 -7 3 -17 -4 -10 -2 -14 5 -9 6 3 14 1 18 -5 4 -8 3
-9 -4 -5 -6 4 -16 -4 -23 -16 -9 -19 -9 -21 2 -10 18 17 30 15 23 -3 -4 -8
-11 -15 -18 -15 -6 0 -17 -10 -25 -22 -13 -21 -13 -22 2 -9 10 7 17 10 17 5
-1 -22 -18 -31 -51 -29 -41 4 -122 42 -115 54 3 4 -5 6 -18 4 -13 -3 -27 0
-30 5 -4 8 -16 8 -36 0 -32 -11 -28 -13 -130 69 -22 17 -53 34 -70 38 -16 4
-32 11 -35 16 -4 5 -14 9 -24 9 -17 0 -38 6 -206 60 -38 13 -86 26 -105 30
-58 13 -274 79 -291 89 -9 5 -26 7 -37 4 -13 -3 -42 8 -79 31 -45 27 -67 35
-96 33 -21 -2 -42 2 -48 9 -5 7 -33 15 -62 19 -29 3 -74 12 -102 20 -96 26
-220 46 -223 35 -8 -24 -42 -55 -49 -44 -5 6 -43 14 -86 17 -43 4 -81 9 -86
11 -4 3 -13 1 -21 -4 -9 -5 -19 -5 -27 2 -7 5 -20 8 -29 4 -8 -3 -23 -2 -32 3
-9 5 -35 11 -58 13 -23 3 -47 9 -54 13 -9 6 -11 4 -5 -4 5 -10 -12 -12 -76 -9
-48 3 -98 -1 -119 -7 -50 -17 -87 -12 -112 15 -12 13 -23 19 -26 12 -2 -6 -11
-8 -20 -5 -14 4 -14 3 -3 -5 8 -6 21 -8 30 -4 9 3 12 1 8 -4 -5 -5 -38 -9 -74
-11 -51 -1 -73 -7 -105 -28 -36 -24 -44 -25 -64 -14 -20 10 -33 9 -75 -4 -28
-9 -55 -14 -60 -11 -5 3 -9 2 -9 -3 0 -11 -49 -33 -72 -33 -10 0 -27 9 -38 20
-11 11 -29 20 -41 20 -11 0 -17 5 -14 10 4 6 -7 10 -27 9 -18 0 -63 1 -101 4
-49 3 -70 0 -79 -10 -6 -8 -16 -12 -23 -9 -6 2 -30 1 -53 -4 -23 -4 -39 -4
-37 1 10 16 -18 21 -30 6 -14 -19 -99 -24 -110 -7 -4 7 -11 8 -18 2 -7 -6 -39
-15 -72 -22 -33 -7 -66 -17 -72 -22 -20 -16 -106 -20 -115 -5 -5 8 -8 7 -8 -5
0 -14 -11 -16 -75 -14 -54 2 -84 -3 -110 -15 -32 -16 -35 -16 -23 -2 11 15 10
16 -12 10 -14 -4 -30 -7 -37 -7 -6 0 -24 -11 -40 -24 -16 -13 -51 -31 -79 -39
-46 -14 -51 -13 -62 2 -6 9 -11 12 -11 6 3 -23 -2 -29 -12 -15 -9 13 -10 13
-6 -2 8 -22 -18 -42 -40 -33 -10 5 -21 7 -25 7 -5 -1 -8 4 -8 10 0 8 -3 9 -8
3 -4 -5 -16 -17 -27 -25 l-20 -15 20 24 c18 22 19 24 2 18 -10 -4 -22 -7 -26
-7 -4 0 -7 -10 -8 -21 -1 -12 -7 -27 -14 -33 -9 -8 -10 -6 -5 9 6 17 4 16 -20
-5 -15 -14 -24 -19 -20 -12 10 16 -9 16 -22 -1 -6 -7 -25 -12 -42 -11 -21 1
-33 -4 -41 -17 -5 -11 -20 -19 -34 -19 -22 0 -95 -63 -95 -82 0 -5 -7 -8 -15
-8 -9 0 -12 -6 -8 -17 3 -10 3 -15 -2 -11 -4 4 -14 3 -22 -3 -10 -9 -13 -8
-13 0 0 7 -5 9 -10 6 -6 -4 -8 -11 -5 -16 4 -5 -1 -9 -10 -9 -14 0 -14 3 2 25
10 13 25 23 33 22 8 -1 15 5 15 13 0 19 -35 19 -57 1 -9 -8 -24 -16 -33 -17
-30 -4 -46 -14 -41 -23 8 -12 -25 -45 -49 -49 -10 -2 -26 -12 -35 -21 -8 -10
-21 -16 -27 -14 -7 3 -16 -2 -19 -11 -3 -9 -9 -14 -14 -11 -4 2 -5 -8 -3 -23
3 -23 2 -24 -6 -7 -5 11 -10 14 -10 8 -1 -7 -10 -13 -21 -13 -11 0 -20 -6 -20
-12 0 -9 -3 -8 -10 2 -8 12 -10 12 -16 -4 -5 -12 -2 -22 9 -28 10 -5 17 -14
17 -19 0 -6 -4 -7 -10 -4 -5 3 -10 -3 -10 -15 0 -12 -4 -19 -9 -16 -10 7 -71
-59 -71 -76 0 -8 -3 -8 -9 -2 -6 5 -5 26 1 54 6 25 11 77 12 115 l1 70 -30 1
c-16 1 -34 2 -40 4 -5 1 -22 1 -36 0 -26 -1 -26 0 -33 86 -7 93 3 126 28 92
15 -21 76 -24 94 -6 7 7 12 20 12 29 0 10 6 20 13 22 9 4 9 7 0 14 -8 6 -9 14
-3 23 14 22 12 34 -11 59 -14 15 -19 30 -15 46 4 15 0 29 -10 39 -11 11 -14
31 -13 68 3 62 -7 98 -27 98 -11 0 -14 -12 -13 -50 1 -28 6 -53 11 -56 14 -9
9 -42 -13 -84 -17 -31 -27 -40 -48 -40 -52 0 -71 11 -71 39 -1 29 -47 85 -80
96 -31 10 -44 51 -25 78 22 32 20 60 -5 52 -14 -5 -20 -2 -20 10 0 10 7 15 17
13 13 -2 18 4 19 22 1 14 -1 29 -4 35 -13 22 -11 66 3 71 8 4 15 12 15 20 0 8
-6 11 -15 8 -9 -4 -15 0 -15 10 0 9 -5 16 -11 16 -5 0 -7 5 -4 10 3 6 3 16 -1
22 -6 9 -10 6 -14 -9 -3 -14 -9 -20 -17 -15 -7 5 -10 17 -6 31 5 19 11 22 44
20 30 -3 42 1 54 18 13 19 19 20 56 12 33 -8 45 -7 59 6 9 8 21 15 26 15 5 -1
-2 -9 -14 -20 -22 -18 -22 -21 -8 -35 9 -9 20 -13 26 -10 6 3 13 -1 16 -9 3
-9 10 -14 14 -11 4 3 13 -2 20 -10 16 -19 30 -19 30 0 0 8 -7 15 -15 15 -17 0
-20 16 -4 25 6 4 8 13 5 21 -3 7 -1 16 4 19 12 8 50 -34 57 -65 10 -42 43 -56
35 -15 -3 19 3 32 22 50 28 26 46 32 46 15 0 -5 6 -10 14 -10 8 0 16 -5 18
-11 4 -13 78 -40 78 -29 0 4 16 1 34 -8 19 -9 33 -19 30 -24 -3 -5 -10 -6 -15
-3 -5 4 -9 1 -9 -4 0 -6 7 -11 15 -11 8 0 15 4 15 9 0 15 186 289 248 365 68
84 212 240 227 245 5 2 24 16 40 32 35 32 281 195 387 256 281 160 531 265
748 311 109 24 432 65 552 70 20 1 90 -5 155 -13z m2103 -991 c0 -14 -3 -14
-15 -4 -8 7 -15 14 -15 16 0 2 7 4 15 4 8 0 15 -7 15 -16z m30 -5 c0 -6 -4 -7
-10 -4 -5 3 -10 11 -10 16 0 6 5 7 10 4 6 -3 10 -11 10 -16z m190 -271 c0 -19
-2 -20 -10 -8 -13 19 -13 30 0 30 6 0 10 -10 10 -22z m10 -103 c7 -8 9 -15 5
-15 -4 0 -2 -7 5 -15 7 -8 8 -15 2 -15 -11 0 -26 18 -35 43 -8 21 6 22 23 2z
m100 -15 c0 -5 -4 -10 -9 -10 -6 0 -13 5 -16 10 -3 6 1 10 9 10 9 0 16 -4 16
-10z m-26 -119 c-6 -6 -34 20 -34 32 0 6 8 2 19 -9 10 -10 17 -21 15 -23z m26
-76 c10 -13 9 -15 -8 -15 -15 0 -20 5 -16 15 4 8 7 15 9 15 1 0 8 -7 15 -15z
m-2630 -60 c-12 -14 -40 -10 -40 6 0 13 44 29 48 17 2 -5 -1 -15 -8 -23z
m2690 20 c0 -8 -2 -15 -4 -15 -2 0 -6 7 -10 15 -3 8 -1 15 4 15 6 0 10 -7 10
-15z m-3405 -4 c3 -6 -4 -8 -16 -6 -30 6 -37 15 -11 15 11 0 23 -4 27 -9z
m680 -50 c-6 -5 -25 10 -25 20 0 5 6 4 14 -3 8 -7 12 -15 11 -17z m918 12 c-7
-2 -19 -2 -25 0 -7 3 -2 5 12 5 14 0 19 -2 13 -5z m-137 -22 c5 -5 38 -11 74
-15 44 -4 60 -3 50 4 -23 15 -6 12 26 -4 15 -8 31 -13 36 -10 4 3 14 2 21 -3
6 -4 37 -9 67 -10 71 -2 100 -7 108 -20 9 -14 72 -25 72 -13 0 6 -7 10 -15 10
-8 0 -15 8 -15 18 0 13 2 14 9 4 4 -7 14 -12 22 -10 8 2 14 -4 14 -12 0 -16
25 -50 37 -50 4 0 5 7 2 15 -4 10 0 15 15 15 12 0 20 -5 19 -12 -2 -6 6 -14
17 -16 29 -6 75 -41 75 -57 0 -7 10 -12 24 -11 13 0 22 5 19 9 -3 5 3 7 13 5
13 -2 18 2 16 14 -2 13 2 16 13 12 9 -4 14 -13 11 -21 -3 -8 -1 -11 5 -8 5 4
17 4 27 0 14 -5 14 -7 2 -16 -11 -8 -9 -9 9 -4 19 6 23 4 18 -8 -3 -9 1 -18 9
-21 8 -3 14 -10 14 -16 0 -15 -26 -12 -41 6 -7 8 -25 22 -40 29 -23 12 -28 12
-32 1 -4 -9 0 -12 12 -9 10 2 31 -7 47 -20 16 -14 42 -25 57 -25 27 0 27 1 10
20 -17 19 -17 19 10 13 19 -5 27 -3 27 6 0 11 3 11 10 -1 5 -8 10 -11 10 -6 0
5 7 3 15 -4 8 -7 15 -9 15 -5 0 5 9 0 20 -10 17 -15 23 -16 33 -5 10 10 9 12
-5 7 -10 -3 -20 -2 -23 3 -9 15 29 12 51 -4 10 -8 16 -18 11 -22 -4 -4 -7 -2
-7 4 0 7 -5 12 -11 12 -7 0 -6 -8 3 -22 13 -20 14 -38 8 -98 -1 -11 -4 -9 -10
5 -8 19 -9 19 -9 -1 -1 -12 6 -25 15 -28 8 -3 12 -2 9 3 -3 5 -1 12 5 16 6 4
10 -8 10 -31 0 -35 -1 -37 -15 -18 -8 10 -15 14 -15 8 0 -13 35 -46 42 -39 2
3 4 -4 3 -15 -1 -11 -6 -25 -12 -31 -7 -7 -9 -2 -7 18 2 15 1 22 -2 15 -3 -6
-10 -10 -15 -6 -11 7 -11 4 2 -34 9 -28 40 -50 62 -44 4 1 7 -2 7 -7 0 -13 27
-21 103 -31 91 -11 115 -32 112 -98 -1 -26 2 -55 7 -66 7 -13 7 -16 -1 -12
-18 11 -13 -9 8 -33 12 -14 25 -20 32 -15 8 4 9 3 5 -4 -4 -7 -2 -12 3 -12 15
0 14 -33 -1 -48 -9 -9 -8 -12 5 -12 9 0 17 -4 17 -10 0 -5 -5 -10 -11 -10 -6
0 -9 -6 -6 -12 2 -7 12 -12 21 -10 14 3 16 0 8 -14 -5 -9 -7 -25 -5 -34 3 -10
0 -21 -6 -24 -6 -4 -11 -12 -11 -17 0 -6 5 -7 10 -4 6 3 10 1 10 -4 0 -6 -6
-12 -12 -12 -7 -1 -22 -3 -33 -5 -61 -10 -75 -10 -75 -3 0 5 -10 5 -22 0 -13
-4 -35 -5 -51 0 -15 4 -34 6 -41 3 -7 -3 -26 2 -42 11 -20 10 -30 11 -33 4 -2
-7 -6 -8 -10 -2 -3 6 -34 13 -68 16 -54 6 -61 5 -56 -9 3 -9 9 -11 12 -6 3 5
21 7 39 5 58 -9 34 -19 -44 -17 -43 0 -70 -3 -62 -7 10 -7 9 -9 -4 -9 -10 0
-18 5 -18 10 0 6 -6 10 -14 10 -24 0 -29 20 -10 35 13 10 15 14 5 15 -10 0
-11 3 -2 13 6 8 8 17 4 21 -4 3 -8 13 -9 20 -3 19 26 14 60 -9 20 -13 50 -20
91 -22 45 -2 82 -12 139 -38 42 -19 85 -35 94 -35 9 1 -8 12 -38 26 -30 14
-71 34 -90 44 -44 22 -126 37 -116 21 4 -6 3 -11 -3 -11 -5 0 -13 4 -16 10 -3
5 -15 15 -27 21 -15 8 -19 8 -14 0 4 -6 3 -11 -2 -11 -29 0 -22 69 8 91 36 28
152 49 225 42 34 -3 69 -2 78 3 23 13 -113 16 -198 4 -144 -19 -151 -20 -135
-10 9 6 10 10 3 10 -6 0 -14 -4 -17 -9 -3 -5 -15 -7 -26 -4 -15 4 -20 0 -20
-13 0 -14 -2 -16 -9 -6 -4 8 -12 14 -17 14 -17 0 -32 13 -37 33 -4 19 -5 19
-6 -2 -1 -15 -9 -23 -30 -28 -25 -5 -36 0 -72 34 -23 23 -46 41 -53 41 -6 0
-3 7 7 14 16 13 16 14 -8 20 -14 3 -24 12 -22 18 1 7 -2 13 -8 14 -39 6 -75
18 -76 25 -1 5 -2 14 -3 20 0 6 -8 16 -16 22 -8 7 -28 28 -45 47 -30 35 -37
40 -55 40 -5 0 -10 4 -10 9 0 12 52 6 80 -9 17 -9 20 -8 20 10 0 11 -5 20 -11
20 -5 0 -7 5 -3 11 3 6 -6 23 -21 39 -15 16 -24 33 -21 39 4 7 1 8 -8 5 -9 -3
-13 -11 -9 -18 3 -6 -10 7 -30 28 -23 26 -40 37 -51 33 -9 -4 -16 -1 -16 6 0
13 -53 77 -64 77 -4 0 -4 -4 -1 -10 11 -18 -29 4 -52 28 -13 14 -23 20 -23 14
0 -7 -7 -9 -17 -5 -15 6 -16 4 -5 -9 10 -13 10 -18 1 -24 -7 -4 -9 -3 -5 4 3
6 2 13 -3 17 -6 3 -8 12 -4 20 3 10 -2 15 -16 15 -12 0 -21 -6 -21 -15 0 -20
-4 -19 -56 10 -32 18 -44 21 -44 11 0 -15 -40 -10 -51 7 -4 5 -9 -3 -13 -18
l-7 -26 -26 21 c-21 16 -29 18 -41 8 -13 -11 -15 -10 -9 5 6 15 3 17 -14 12
-15 -5 -19 -4 -15 4 4 6 4 11 -1 9 -4 -1 -23 2 -42 6 -20 5 -36 4 -40 -1 -3
-6 -16 -15 -29 -22 -18 -9 -20 -14 -10 -25 14 -14 40 1 31 19 -2 6 3 1 12 -10
17 -20 17 -20 10 3 -7 25 2 28 28 7 11 -7 25 -11 33 -8 8 3 14 -1 14 -10 0 -8
5 -17 11 -19 7 -2 4 -10 -7 -18 -16 -13 -17 -13 -11 2 4 12 0 21 -13 28 -17 9
-20 7 -21 -12 -1 -13 -1 -26 0 -31 1 -4 -11 -5 -26 -1 -16 3 -36 6 -45 6 -10
-1 -18 7 -18 16 0 12 -3 13 -12 4 -15 -15 -38 -16 -38 -1 0 6 7 8 16 5 13 -5
15 -2 11 15 -4 15 1 28 16 40 12 10 16 18 10 19 -7 0 -13 -4 -13 -10 0 -5 -9
-10 -19 -10 -27 0 -35 -17 -14 -29 16 -9 16 -10 -4 -11 -20 0 -21 -3 -13 -25
6 -15 6 -26 0 -30 -6 -4 -10 -1 -10 4 0 6 -7 11 -15 11 -8 0 -15 5 -15 11 0 5
5 7 11 4 7 -5 9 10 7 43 -3 45 -4 48 -23 39 -11 -6 -28 -14 -38 -19 -10 -5
-23 -5 -30 -1 -17 10 -47 11 -41 1 4 -5 12 -7 20 -4 17 7 19 -10 2 -18 -7 -3
-4 -4 7 -1 16 4 23 -2 32 -25 13 -35 -3 -42 -17 -7 -8 19 -9 20 -9 3 -1 -19
-2 -19 -23 2 -17 15 -27 18 -40 11 -10 -6 -18 -7 -18 -3 0 4 -10 -1 -22 -12
-13 -11 -35 -25 -50 -32 -23 -9 -26 -9 -21 3 3 8 9 12 14 9 5 -3 9 0 9 5 0 14
-13 14 -28 -1 -9 -9 -12 -8 -13 7 0 13 -3 15 -6 6 -4 -11 -7 -11 -14 0 -4 7
-11 11 -14 7 -3 -3 1 -13 10 -22 15 -15 15 -16 -3 -16 -22 0 -36 25 -25 43 3
7 3 9 -2 5 -4 -4 -13 -18 -20 -30 -6 -13 -18 -22 -25 -20 -11 3 -11 0 1 -14
13 -16 12 -17 -13 -11 -22 6 -26 4 -22 -8 8 -19 -10 -20 -29 -1 -11 12 -15 11
-26 -6 -11 -17 -10 -19 7 -14 13 5 22 1 26 -10 3 -9 13 -14 21 -10 8 3 17 1
20 -4 3 -5 12 -7 20 -3 8 3 15 1 15 -5 0 -6 -6 -13 -12 -15 -7 -3 16 -6 52 -6
72 -1 73 -18 1 -26 -24 -2 -51 -11 -61 -20 -21 -19 -16 -47 8 -43 22 4 27 -19
5 -25 -10 -3 5 -5 32 -5 88 0 93 -1 55 -18 -19 -9 -39 -16 -45 -17 -5 -1 -18
-9 -28 -19 -26 -22 -60 -31 -53 -13 4 12 0 12 -22 3 -38 -17 -38 -17 -13 -35
20 -13 21 -17 8 -24 -24 -14 -221 -39 -387 -50 -388 -24 -767 -61 -823 -78
-92 -29 -202 -52 -224 -46 -21 5 -24 10 -19 30 4 14 2 25 -3 25 -13 0 -41 -29
-42 -43 -1 -7 -5 -1 -9 13 -5 17 -8 19 -9 8 -1 -10 -9 -18 -18 -18 -14 0 -15
2 -5 9 11 7 10 10 -3 15 -34 13 -53 7 -48 -14 3 -11 10 -17 17 -13 6 3 7 2 3
-3 -11 -12 -100 -12 -109 1 -4 5 -8 0 -8 -12 0 -14 -6 -23 -16 -23 -8 0 -12 5
-9 10 7 12 3 12 -19 4 -9 -3 -14 -10 -11 -14 3 -5 -4 -11 -15 -15 -11 -3 -20
-11 -20 -17 0 -6 -2 -9 -5 -6 -3 3 -1 16 4 30 8 21 6 24 -13 23 -39 -3 -76
-24 -77 -45 -2 -34 -27 -95 -29 -70 0 12 -3 11 -11 -3 -8 -14 -7 -23 7 -40
l18 -22 -23 21 c-35 33 -60 156 -47 229 14 75 145 193 231 209 22 4 45 11 50
15 6 5 24 13 40 19 17 5 39 13 49 18 15 6 17 4 11 -7 -9 -15 40 25 62 51 12
13 12 13 8 0 -4 -12 3 -16 30 -17 19 0 33 2 31 6 -9 15 14 50 32 48 17 -1 19
-5 11 -27 l-9 -25 16 23 c9 12 25 22 36 22 16 0 19 5 15 25 -2 14 -2 24 1 21
2 -3 11 1 19 9 17 18 37 20 27 3 -4 -7 -3 -8 5 -4 6 4 9 11 6 16 -3 5 2 16 11
24 8 9 11 16 5 16 -5 0 -13 -5 -16 -10 -9 -15 -25 -2 -19 14 3 8 20 14 40 14
19 0 32 -4 29 -8 -3 -5 1 -11 7 -13 9 -4 7 -6 -3 -6 -17 -1 -49 -31 -33 -31
19 1 59 40 59 57 0 11 16 26 44 39 28 14 39 23 30 27 -8 3 -9 6 -2 6 28 2 21
-20 -14 -39 -21 -12 -29 -18 -18 -14 11 4 28 7 37 8 9 0 15 3 12 7 -2 4 3 9
11 12 10 4 12 1 8 -11 -3 -9 -4 -15 -2 -12 43 51 44 54 26 47 -10 -4 -16 -3
-13 2 8 12 94 41 123 41 15 0 22 -4 17 -11 -4 -8 0 -7 15 1 12 6 30 10 39 7 9
-2 28 2 42 8 30 14 119 18 134 6 16 -12 95 -20 102 -10 3 5 -1 9 -8 10 -7 1 2
5 21 9 18 4 44 7 57 5 25 -2 33 10 12 17 -7 3 6 5 30 6 46 2 53 -13 17 -36
-19 -12 -19 -13 4 -6 17 4 21 3 16 -6 -5 -8 -4 -11 3 -6 6 3 9 15 7 25 -3 16
4 18 58 20 72 2 100 9 92 22 -4 5 -1 9 4 9 6 0 11 -3 11 -7 0 -12 112 -14 150
-3 19 5 36 7 38 2 1 -4 20 -6 42 -4 22 2 38 8 35 12 -3 4 14 8 36 8 49 1 72
17 63 45 -4 13 -2 17 5 13 6 -4 11 -18 11 -32 0 -13 4 -24 8 -24 10 0 9 31 -2
48 -10 17 -1 26 18 19 9 -4 13 -12 11 -19 -4 -9 4 -14 22 -15 24 -1 25 0 8 7
-14 6 -2 9 42 9 65 1 90 -13 51 -28 -13 -6 -16 -10 -8 -10 8 0 41 12 72 27 31
15 54 24 52 20 -3 -4 -1 -8 5 -8 5 0 11 3 14 8 2 4 3 2 1 -4 -3 -14 57 -28 65
-16 10 14 76 8 91 -8 8 -9 11 -10 6 -3 -6 10 -4 12 8 7 19 -7 22 12 4 20 -7 3
3 3 23 0 21 -3 56 1 84 10 29 10 60 14 81 10 21 -4 34 -2 34 4 0 10 18 18 46
21 5 0 14 -3 20 -8z m-686 -17 c0 -8 -5 -12 -10 -9 -6 4 -8 11 -5 16 9 14 15
11 15 -7z m1010 6 c0 -5 -7 -7 -15 -4 -8 4 -15 8 -15 10 0 2 7 4 15 4 8 0 15
-4 15 -10z m-695 -21 c-5 -6 -55 0 -55 7 0 3 13 3 29 2 16 -1 28 -5 26 -9z
m-411 -14 c3 -8 1 -15 -4 -15 -6 0 -10 7 -10 15 0 8 2 15 4 15 2 0 6 -7 10
-15z m-109 -45 c8 -13 -5 -13 -25 0 -13 8 -13 10 2 10 9 0 20 -4 23 -10z
m-282 -27 c-7 -2 -21 -2 -30 0 -10 3 -4 5 12 5 17 0 24 -2 18 -5z m1860 -17
c4 -10 0 -12 -15 -8 -15 4 -17 7 -6 13 17 11 15 11 21 -5z m134 -60 c-14 -15
-16 -15 -15 1 0 10 -3 27 -7 38 -7 19 -7 19 15 -2 21 -20 22 -23 7 -37z m1183
6 c0 -29 -14 -20 -25 15 -5 18 -3 22 9 17 9 -3 16 -18 16 -32z m-2420 -19 c0
-10 -6 -26 -13 -35 -16 -20 -40 -9 -27 12 5 9 5 19 -2 27 -8 10 -4 13 16 13
18 0 26 -5 26 -17z m197 11 c-3 -3 -12 -4 -19 -1 -8 3 -5 6 6 6 11 1 17 -2 13
-5z m1157 -3 c13 -1 -2 -14 -19 -17 -7 -1 -16 4 -19 11 -3 8 2 12 12 10 9 -2
21 -4 26 -4z m-2934 -21 c0 -5 -4 -10 -10 -10 -5 0 -12 0 -15 0 -3 0 -15 -9
-27 -20 -24 -22 -34 -20 -24 5 9 25 76 47 76 25z m1870 -9 c0 -14 -18 -23 -31
-15 -8 4 -7 9 2 15 18 11 29 11 29 0z m2165 -23 l16 -33 -20 25 c-20 24 -26
40 -16 40 2 0 12 -15 20 -32z m-4650 12 c3 -6 -1 -7 -9 -4 -18 7 -21 14 -7 14
6 0 13 -4 16 -10z m78 -24 c9 5 9 3 0 -6 -10 -11 -16 -10 -33 5 -11 10 -20 23
-20 28 0 6 9 1 21 -11 11 -12 26 -19 32 -16z m-138 4 c3 -5 1 -10 -4 -10 -6 0
-11 5 -11 10 0 6 2 10 4 10 3 0 8 -4 11 -10z m585 4 c0 -8 -19 -13 -24 -6 -3
5 1 9 9 9 8 0 15 -2 15 -3z m1504 -9 c-4 -8 -12 -15 -20 -15 -20 0 -17 18 4
23 9 3 18 5 19 6 1 0 0 -6 -3 -14z m-1607 -49 c-20 -19 -37 -30 -37 -25 0 16
-35 -4 -62 -35 -15 -17 -28 -26 -28 -19 0 6 4 14 10 18 5 3 7 13 4 23 -4 12
-3 14 3 4 8 -10 12 -10 22 2 6 8 23 17 37 20 15 4 22 11 18 18 -4 7 -3 8 4 4
7 -4 12 -3 12 1 0 9 42 31 49 26 3 -2 -12 -18 -32 -37z m2453 -7 c0 -18 -35
-5 -38 14 -3 16 -1 17 17 7 12 -6 21 -15 21 -21z m1797 -15 c-2 -2 -11 -2 -20
2 -13 4 -14 9 -4 19 10 11 14 10 20 -2 5 -8 7 -17 4 -19z m3 -21 c9 9 11 9 6
0 -3 -6 2 -16 11 -22 10 -6 13 -11 6 -11 -6 0 -15 5 -18 10 -4 6 -11 7 -17 4
-6 -4 -14 0 -19 7 -14 22 -10 36 5 17 10 -14 15 -15 26 -5z m-4288 -25 c-7 -7
-12 -8 -12 -2 0 14 12 26 19 19 2 -3 -1 -11 -7 -17z m4241 0 c6 -21 2 -36 -7
-27 -10 11 -16 49 -8 49 5 0 12 -10 15 -22z m-4813 2 c0 -5 -7 -10 -15 -10 -8
0 -15 5 -15 10 0 6 7 10 15 10 8 0 15 -4 15 -10z m3130 -20 c0 -5 -2 -10 -4
-10 -3 0 -8 5 -11 10 -3 6 -1 10 4 10 6 0 11 -4 11 -10z m1660 -10 c0 -5 -2
-10 -4 -10 -3 0 -8 5 -11 10 -3 6 -1 10 4 10 6 0 11 -4 11 -10z m61 1 c6 9 9
10 9 2 0 -6 -4 -14 -10 -18 -6 -4 -5 -16 1 -33 8 -22 8 -25 -2 -15 -7 7 -14
28 -15 45 -1 18 1 27 3 19 5 -11 7 -11 14 0z m69 -26 c0 -5 -5 -3 -10 5 -5 8
-10 20 -10 25 0 6 5 3 10 -5 5 -8 10 -19 10 -25z m-35 15 c-3 -5 -1 -10 6 -10
10 0 10 -3 2 -11 -17 -17 -37 -1 -22 17 13 16 23 19 14 4z m-1685 -4 c0 -9
-30 -14 -35 -6 -4 6 3 10 14 10 12 0 21 -2 21 -4z m-1176 -14 c3 -5 -1 -9 -9
-9 -8 0 -12 4 -9 9 3 4 7 8 9 8 2 0 6 -4 9 -8z m2907 -53 c4 -18 3 -40 -3 -49
-8 -13 -9 -13 -5 1 3 9 -2 27 -10 40 -9 12 -11 19 -5 15 7 -4 12 -1 12 8 0 8
-5 17 -10 19 -6 3 -5 4 2 3 7 -1 16 -18 19 -37z m-49 6 c3 -13 1 -22 -3 -19
-9 5 -13 44 -5 44 2 0 6 -11 8 -25z m-2182 1 c0 -2 -33 -12 -72 -21 -40 -10
-82 -22 -93 -28 -11 -6 -29 -12 -40 -13 -11 -1 -40 -7 -65 -13 -25 -6 -56 -10
-70 -10 -23 1 -23 1 5 10 17 5 59 15 95 23 36 9 97 24 135 34 70 20 105 25
105 18z m1549 -37 c-14 -27 -25 -30 -40 -12 -8 9 -9 14 -4 11 6 -4 17 -3 25 3
8 5 10 9 4 9 -6 0 -11 6 -11 14 0 11 4 12 18 3 13 -8 15 -16 8 -28z m-1591
-18 c62 14 91 8 32 -7 -109 -27 -202 -45 -213 -41 -7 3 7 8 30 12 24 4 41 10
39 14 -2 3 10 7 27 8 18 2 34 8 36 15 3 9 6 9 8 2 3 -8 15 -9 41 -3z m1547
-21 c-3 -5 -16 -10 -28 -9 -21 0 -21 1 -2 9 28 12 37 12 30 0z m-2060 -30 c-3
-5 -16 -10 -28 -9 -20 1 -20 2 3 9 14 4 26 8 28 9 2 1 0 -3 -3 -9z m309 1 c3
-5 -10 -11 -30 -13 -32 -4 -34 -3 -18 9 21 15 40 17 48 4z m-454 -26 c-7 -8
-18 -15 -24 -15 -6 0 -2 7 8 15 25 19 32 19 16 0z m1260 5 c0 -5 -2 -10 -4
-10 -3 0 -8 5 -11 10 -3 6 -1 10 4 10 6 0 11 -4 11 -10z m1084 -5 c3 -8 1 -15
-4 -15 -6 0 -10 7 -10 15 0 8 2 15 4 15 2 0 6 -7 10 -15z m-4734 -35 c-6 -11
-15 -20 -20 -20 -16 0 -11 18 8 29 24 14 24 14 12 -9z m4627 -12 c-3 -8 -6 -5
-6 6 -1 11 2 17 5 13 3 -3 4 -12 1 -19z m-4563 -43 c3 -8 13 -15 23 -15 15 0
16 -2 3 -10 -13 -9 -13 -10 0 -11 8 0 -2 -7 -24 -15 -21 -7 -42 -11 -48 -8 -5
3 -6 -6 -2 -23 4 -15 4 -25 -1 -21 -9 8 -65 -55 -65 -74 0 -21 -59 -68 -84
-68 -12 0 -28 5 -36 10 -12 8 -10 10 8 10 30 0 62 17 62 33 0 7 14 20 30 29
37 21 70 74 70 112 0 48 50 88 64 51z m4470 2 c3 3 6 0 6 -8 0 -11 2 -11 10 1
7 12 10 12 10 1 0 -8 6 -11 17 -7 10 4 14 4 10 -1 -5 -4 7 -13 25 -20 32 -12
31 -12 -17 -6 -54 6 -105 27 -105 44 0 6 6 6 19 0 10 -6 21 -7 25 -4z m-3673
-90 c-10 -9 -11 -8 -5 6 3 10 9 15 12 12 3 -3 0 -11 -7 -18z m3646 17 c-3 -3
-12 -4 -19 -1 -8 3 -5 6 6 6 11 1 17 -2 13 -5z m-3620 -40 c-3 -3 -12 -4 -19
-1 -8 3 -5 6 6 6 11 1 17 -2 13 -5z m-347 -14 c0 -5 -2 -10 -4 -10 -3 0 -8 5
-11 10 -3 6 -1 10 4 10 6 0 11 -4 11 -10z m3575 -110 c3 -6 -1 -7 -9 -4 -18 7
-21 14 -7 14 6 0 13 -4 16 -10z m-115 -102 c0 -5 -7 -3 -15 6 -8 8 -15 18 -15
22 0 3 7 1 15 -6 8 -7 15 -17 15 -22z m-3461 -44 c1 -7 -20 -19 -46 -27 -39
-13 -44 -13 -29 -1 11 8 26 14 34 14 15 0 8 33 -12 60 -6 8 3 3 21 -10 18 -14
32 -30 32 -36z m-499 19 c0 -10 -19 -40 -21 -33 0 3 -2 13 -4 23 -2 9 3 17 11
17 8 0 14 -3 14 -7z m4414 -30 c-4 -19 -3 -24 4 -15 7 11 10 11 15 -3 4 -10 3
-14 -4 -9 -8 4 -9 -1 -4 -16 5 -15 4 -20 -4 -16 -6 4 -11 14 -11 22 0 8 -4 14
-10 14 -14 0 -13 23 2 38 17 17 19 15 12 -15z m-354 -18 c0 -5 -5 -3 -10 5 -5
8 -10 20 -10 25 0 6 5 3 10 -5 5 -8 10 -19 10 -25z m-2840 11 c0 -3 -4 -8 -10
-11 -5 -3 -10 -1 -10 4 0 6 5 11 10 11 6 0 10 -2 10 -4z m40 0 c0 -3 -4 -8
-10 -11 -5 -3 -10 -1 -10 4 0 6 5 11 10 11 6 0 10 -2 10 -4z m2918 -5 c27 -2
10 -20 -18 -19 -17 1 -30 7 -30 14 0 7 8 11 18 9 9 -2 23 -4 30 -4z m-3005
-18 c-9 -3 -10 -10 -3 -24 7 -12 7 -19 1 -19 -6 0 -15 9 -21 19 -10 19 -1 29
25 29 6 0 4 -2 -2 -5z m-803 -33 c-19 -16 -38 -29 -42 -30 -16 0 -18 0 -18 8
0 4 3 7 8 7 4 1 23 11 42 23 48 30 51 28 10 -8z m852 18 c-9 -9 -15 -9 -24 0
-9 9 -7 12 12 12 19 0 21 -3 12 -12z m248 2 c0 -5 -2 -10 -4 -10 -3 0 -8 5
-11 10 -3 6 -1 10 4 10 6 0 11 -4 11 -10z m-950 -16 c0 -8 -5 -12 -10 -9 -6 4
-8 11 -5 16 9 14 15 11 15 -7z m990 1 c-7 -9 -15 -13 -19 -10 -3 3 1 10 9 15
21 14 24 12 10 -5z m1364 -13 c-9 -8 -13 -24 -10 -35 5 -19 4 -19 -12 -2 -12
13 -14 19 -5 22 9 3 10 10 3 22 -8 15 -6 17 15 13 22 -4 23 -6 9 -20z m-2271
4 c4 -10 1 -13 -9 -9 -8 3 -20 -1 -27 -9 -14 -17 -51 -33 -42 -18 3 6 10 10
16 10 5 0 18 9 29 20 24 24 26 24 33 6z m225 2 c-2 -6 -14 -18 -26 -26 -20
-13 -22 -13 -22 2 0 9 3 15 8 15 4 -1 14 -1 22 0 13 1 13 2 0 11 -13 8 -12 10
3 10 10 0 17 -5 15 -12z m-58 -8 c0 -5 -4 -10 -10 -10 -5 0 -10 5 -10 10 0 6
5 10 10 10 6 0 10 -4 10 -10z m161 -10 c6 0 8 4 5 8 -3 5 1 9 9 9 10 0 12 -4
5 -12 -10 -12 -10 -55 1 -55 4 0 10 8 14 17 6 16 8 15 25 -7 24 -31 25 -41 3
-34 -15 5 -15 4 -3 -4 8 -6 19 -8 25 -4 5 3 19 7 30 9 11 1 14 -1 8 -3 -13 -6
-19 -34 -7 -34 12 0 33 28 26 36 -4 5 -3 6 2 2 5 -4 16 -2 24 5 11 8 13 8 9 0
-5 -8 0 -9 15 -5 12 3 17 7 10 10 -22 7 -12 20 28 38 22 10 40 22 40 27 0 4 5
5 11 2 6 -5 4 -12 -8 -20 -28 -21 -8 -29 23 -9 l27 18 -7 -27 c-4 -16 -2 -27
4 -27 5 0 11 7 11 15 3 30 4 34 17 47 11 11 12 10 7 -3 -5 -14 7 -26 35 -34
33 -9 49 -18 45 -26 -3 -5 12 -12 34 -15 23 -4 38 -10 35 -15 -3 -5 2 -9 11
-9 9 0 14 4 11 9 -3 5 0 11 8 14 9 4 12 14 9 26 -4 18 1 21 46 27 28 4 51 10
51 14 0 15 51 17 66 3 18 -18 10 -31 -9 -15 -10 9 -18 8 -33 -4 -10 -8 -14
-13 -9 -11 6 3 28 -3 50 -13 22 -11 45 -19 51 -20 20 0 23 -26 5 -40 -16 -11
-20 -36 -10 -65 2 -5 0 -10 -6 -10 -5 0 -10 10 -10 23 1 12 -5 22 -13 22 -7 0
-10 5 -7 10 3 6 2 10 -3 10 -15 0 -22 -26 -9 -39 8 -8 4 -11 -15 -11 -15 0
-30 -5 -33 -10 -4 -6 -11 -8 -16 -5 -5 4 -7 -11 -5 -33 3 -35 2 -39 -16 -34
-11 2 -16 8 -11 11 5 3 9 17 8 30 0 17 -6 25 -23 28 -14 2 -21 -1 -17 -7 7
-12 3 -12 -19 -4 -9 3 -13 10 -10 15 3 5 0 9 -5 9 -15 0 -14 -13 2 -29 10 -10
9 -11 -3 -7 -8 3 -35 7 -58 10 -50 5 -63 13 -42 26 13 8 12 10 -3 10 -10 0
-15 4 -12 10 3 5 0 19 -8 31 -10 13 -17 17 -22 10 -3 -6 -11 -9 -16 -5 -6 4
-6 11 2 20 6 8 7 14 3 14 -5 0 -15 -10 -23 -21 -10 -16 -10 -23 -1 -29 8 -5 7
-9 -5 -14 -21 -8 -27 -8 -44 3 -10 7 -11 13 -1 30 10 20 10 21 -9 9 -12 -7
-21 -18 -21 -25 0 -7 -5 -13 -11 -13 -5 0 -8 4 -5 9 9 15 -23 34 -55 33 -17 0
-40 -9 -52 -19 -14 -12 -18 -13 -12 -3 4 8 4 12 0 7 -14 -12 -16 -47 -2 -47 8
0 7 -3 -3 -9 -8 -6 -19 -7 -25 -3 -13 9 -104 9 -102 1 1 -4 -1 -7 -5 -8 -23
-3 -28 0 -22 12 4 6 4 9 0 5 -4 -3 -22 -2 -39 3 -29 8 -35 6 -64 -28 -25 -28
-31 -32 -26 -15 3 12 10 22 16 22 6 0 7 3 4 7 -4 3 -21 -6 -37 -22 -17 -16
-30 -23 -30 -17 0 7 6 12 13 13 6 0 1 5 -13 11 l-25 10 33 14 c18 8 38 11 44
8 7 -4 8 -3 4 4 -4 6 0 28 9 48 8 20 13 40 10 44 -3 5 -1 11 5 15 6 4 7 12 4
18 -4 8 -2 7 7 -1 12 -11 12 -14 -1 -22 -11 -7 -11 -10 -2 -10 7 0 10 -5 7
-10 -10 -16 16 -41 35 -35 11 3 30 -5 49 -21 17 -14 37 -24 43 -21 8 2 1 10
-14 17 -32 15 -36 30 -10 37 19 5 48 43 33 43 -5 0 -18 -8 -27 -17 -15 -15
-17 -15 -12 -2 3 9 2 22 -3 30 -7 12 -9 12 -10 -1 -1 -8 -1 -18 0 -22 0 -5 -3
-8 -9 -8 -5 0 -9 -3 -9 -7 3 -20 -3 -23 -22 -12 -17 9 -20 8 -14 -2 6 -8 4
-10 -4 -4 -9 5 -10 10 -2 18 7 7 7 15 -1 25 -9 10 -9 15 0 21 7 4 10 15 6 24
-7 19 11 23 20 5 4 -10 9 -8 18 5 7 9 14 13 16 7 2 -5 8 -10 13 -10z m603 5
c3 -8 1 -15 -4 -15 -6 0 -10 7 -10 15 0 8 2 15 4 15 2 0 6 -7 10 -15z m-505
-6 c-10 -6 -10 -9 -1 -9 6 0 12 -4 12 -8 0 -13 -33 -10 -47 3 -15 16 -11 20
23 22 19 1 23 -1 13 -8z m1724 -12 c-2 -4 -5 -7 -8 -7 -3 0 -12 0 -20 0 -8 0
-15 4 -15 10 0 5 10 8 23 6 12 -1 21 -6 20 -9z m157 -3 c0 -8 -5 -12 -10 -9
-6 4 -8 11 -5 16 9 14 15 11 15 -7z m94 1 c-4 -8 -8 -15 -10 -15 -2 0 -4 7 -4
15 0 8 4 15 10 15 5 0 7 -7 4 -15z m271 5 c-3 -5 -11 -10 -16 -10 -6 0 -7 5
-4 10 3 6 11 10 16 10 6 0 7 -4 4 -10z m-2655 -35 c-7 -8 -17 -15 -22 -15 -5
0 -2 7 6 16 9 8 13 21 10 27 -5 9 -3 8 6 0 11 -10 11 -15 0 -28z m105 7 c-8
-8 -25 10 -19 20 4 6 9 5 15 -3 4 -7 6 -15 4 -17z m2640 18 c3 -5 1 -10 -4
-10 -6 0 -11 5 -11 10 0 6 2 10 4 10 3 0 8 -4 11 -10z m-2679 -20 c7 0 11 -6
8 -14 -5 -12 -8 -12 -23 2 -10 9 -15 21 -13 27 3 5 7 4 10 -3 2 -7 10 -12 18
-12z m3569 -1 c-10 -15 -25 -10 -19 6 4 8 10 12 15 9 5 -3 7 -10 4 -15z m284
7 c7 -8 8 -17 3 -20 -6 -3 -12 3 -15 14 -6 24 -4 25 12 6z m-3429 -6 c0 -5
-10 -10 -22 -9 -22 0 -22 1 -3 9 11 5 21 9 23 9 1 1 2 -3 2 -9z m1573 -7 c-3
-7 2 -13 11 -13 9 0 16 7 16 15 0 13 3 13 26 -1 17 -12 21 -19 13 -24 -8 -6
-6 -10 6 -17 16 -9 16 -10 -3 -15 -11 -3 -19 -1 -19 6 1 32 -4 47 -14 41 -6
-4 -8 -14 -5 -22 3 -8 2 -12 -3 -9 -5 3 -11 0 -14 -8 -3 -8 2 -16 13 -19 13
-3 16 -11 13 -31 -3 -16 -10 -23 -16 -19 -17 10 -47 11 -41 1 3 -4 12 -8 20
-8 12 0 13 -4 3 -21 -8 -16 -8 -23 1 -29 9 -5 9 -9 1 -14 -6 -4 -15 3 -20 16
-6 13 -10 16 -11 8 0 -13 -1 -13 -10 0 -7 12 -12 12 -21 3 -9 -9 -9 -16 1 -28
17 -20 11 -25 -19 -14 -14 6 -21 15 -18 24 4 10 1 12 -11 8 -15 -6 -15 -5 -3
11 13 15 13 19 0 26 -10 7 -11 12 -3 20 8 8 14 7 24 -5 7 -8 18 -15 24 -15 6
0 4 5 -4 10 -13 9 -13 11 0 20 12 7 8 10 -15 10 -22 0 -26 3 -16 9 8 5 20 7
27 4 22 -8 35 31 18 55 -8 12 -11 22 -6 22 6 0 12 -7 16 -15 3 -8 11 -15 18
-14 10 0 10 2 1 6 -7 2 -13 9 -13 14 0 6 6 7 13 4 6 -4 3 1 -7 9 -19 16 -19
16 6 14 16 -1 24 -7 21 -15z m762 7 c-3 -5 -12 -10 -18 -10 -7 0 -6 4 3 10 19
12 23 12 15 0z m-3245 -11 c0 -5 6 -7 13 -3 6 4 8 3 4 -1 -13 -15 -37 -14 -37
1 0 8 5 14 10 14 6 0 10 -5 10 -11z m2185 2 c-3 -5 -1 -12 5 -16 5 -3 10 -11
10 -18 0 -7 -7 -5 -16 5 -14 14 -13 38 2 38 3 0 3 -4 -1 -9z m595 -6 c-7 -8
-18 -15 -24 -15 -6 0 -2 7 8 15 25 19 32 19 16 0z m253 2 c7 4 18 8 25 9 10 2
11 -1 1 -12 -6 -8 -14 -12 -17 -10 -2 3 -14 0 -25 -5 -15 -8 -22 -8 -29 2 -8
11 -9 10 -5 -2 3 -9 0 -22 -6 -28 -7 -7 -7 -11 -1 -11 6 0 14 3 18 7 7 8 26
12 68 17 15 2 34 8 42 15 12 10 20 9 43 -4 24 -14 25 -15 4 -9 -22 6 -23 4
-19 -25 4 -26 1 -31 -16 -31 -15 0 -17 3 -8 12 7 7 12 17 12 24 0 15 -50 5
-57 -12 -3 -9 -11 -10 -30 -3 -35 13 -48 12 -34 -4 8 -10 7 -14 -4 -14 -8 0
-15 3 -15 7 0 12 -39 8 -50 -6 -17 -20 -32 -7 -18 15 6 11 19 17 27 14 11 -3
10 1 -4 12 -18 14 -20 14 -23 1 -2 -9 -8 -16 -13 -16 -6 0 -6 8 1 20 6 10 17
17 24 14 8 -3 17 0 21 5 3 6 11 9 16 6 5 -4 9 -2 9 4 0 11 44 19 48 8 2 -4 9
-4 15 0z m58 -20 c-8 -8 -11 -7 -11 4 0 20 13 34 18 19 3 -7 -1 -17 -7 -23z
m199 7 c0 -17 12 -18 27 -3 7 7 12 5 15 -9 5 -18 2 -19 -23 -12 -16 5 -29 6
-29 4 0 -3 -5 -2 -10 1 -8 5 -8 11 -1 19 6 7 7 17 3 21 -4 5 -1 5 6 1 6 -4 12
-14 12 -22z m-2765 -5 c-10 -15 -25 -10 -19 6 4 8 10 12 15 9 5 -3 7 -10 4
-15z m1835 17 c0 -3 -4 -8 -10 -11 -5 -3 -10 -1 -10 4 0 6 5 11 10 11 6 0 10
-2 10 -4z m320 -22 c0 -8 -4 -14 -10 -14 -5 0 -10 2 -10 4 0 2 -3 12 -6 20 -5
12 -2 15 10 10 9 -3 16 -12 16 -20z m530 16 c0 -5 -4 -10 -9 -10 -6 0 -13 5
-16 10 -3 6 1 10 9 10 9 0 16 -4 16 -10z m-2948 -12 c-8 -8 -8 -15 -1 -24 12
-15 -3 -27 -25 -18 -14 5 -14 8 1 30 8 13 20 24 26 24 7 0 7 -4 -1 -12z m1728
-8 c0 9 10 16 22 17 16 2 19 0 9 -6 -8 -5 -12 -18 -8 -30 4 -17 1 -21 -19 -21
-13 0 -27 0 -31 0 -7 0 -8 14 -4 52 1 6 8 3 16 -8 11 -15 14 -16 15 -4z m81 3
c13 -16 12 -17 -3 -4 -10 7 -18 15 -18 17 0 8 8 3 21 -13z m2209 -4 c0 -5 -4
-9 -10 -9 -5 0 -10 7 -10 16 0 8 5 12 10 9 6 -3 10 -10 10 -16z m-245 1 c3 -5
1 -10 -4 -10 -6 0 -11 5 -11 10 0 6 2 10 4 10 3 0 8 -4 11 -10z m-3928 -22
c-3 -8 -6 -5 -6 6 -1 11 2 17 5 13 3 -3 4 -12 1 -19z m2558 6 c23 -15 25 -15
25 0 0 11 8 15 24 14 14 -1 23 -6 20 -10 -3 -4 5 -12 17 -18 13 -7 19 -8 15
-2 -3 6 -2 13 4 17 5 3 10 0 10 -9 0 -8 6 -16 13 -19 6 -2 9 -8 5 -12 -4 -4
-21 -2 -37 4 -40 17 -79 -1 -59 -27 7 -9 8 -14 4 -10 -5 4 -15 3 -23 -4 -11
-8 -12 -7 -7 6 4 10 1 16 -8 16 -8 0 -23 9 -33 20 -18 20 -18 21 0 14 13 -5
16 -4 11 4 -4 7 -15 12 -24 12 -15 0 -15 2 -2 10 19 12 17 13 45 -6z m1392 -6
c-3 -8 -6 -5 -6 6 -1 11 2 17 5 13 3 -3 4 -12 1 -19z m41 -3 c-3 -3 -9 2 -12
12 -6 14 -5 15 5 6 7 -7 10 -15 7 -18z m-3548 -6 c-25 -21 -20 -21 30 -1 13 5
13 4 0 -10 -8 -9 -17 -14 -19 -13 -1 2 -13 0 -26 -5 -17 -7 -25 -5 -29 6 -3 8
-2 13 2 10 5 -3 16 4 25 15 9 10 22 19 29 19 7 0 2 -10 -12 -21z m2661 3 c-7
-2 -18 1 -23 6 -8 8 -4 9 13 5 13 -4 18 -8 10 -11z m-2756 -3 c18 -9 18 -9 -3
-5 -17 3 -22 1 -18 -10 3 -8 -1 -14 -9 -14 -8 0 -15 -4 -15 -9 0 -11 38 -2 46
10 7 12 34 11 34 -1 0 -5 -7 -10 -15 -10 -9 0 -18 -7 -21 -15 -4 -8 -10 -15
-16 -15 -5 0 -6 6 -2 13 4 6 -3 3 -16 -8 -13 -11 -20 -14 -16 -7 5 8 1 12 -10
12 -15 0 -14 4 6 25 13 14 20 25 16 25 -4 0 -4 5 -1 10 7 12 13 12 40 -1z
m2715 1 c0 -5 -4 -10 -10 -10 -5 0 -7 -8 -4 -17 5 -15 4 -16 -5 -3 -15 21 -13
40 4 40 8 0 15 -4 15 -10z m-556 -16 c3 -8 2 -12 -4 -9 -6 3 -13 0 -16 -9 -3
-8 -12 -12 -19 -10 -7 3 -16 0 -21 -7 -4 -8 -3 -10 4 -5 7 4 12 3 12 -3 0 -5
-6 -12 -12 -14 -7 -3 -3 -6 10 -6 12 -1 22 4 22 9 0 6 5 10 10 10 6 0 3 -11
-6 -24 -9 -15 -21 -22 -30 -19 -8 3 -14 1 -14 -5 0 -6 6 -13 13 -15 7 -4 8 -6
1 -6 -6 -1 -17 6 -24 14 -7 8 -19 15 -26 15 -8 0 -14 5 -14 11 0 5 4 8 9 4 5
-3 13 5 17 17 9 31 29 48 53 48 12 0 21 5 21 10 0 15 7 12 14 -6z m481 6 c-3
-5 -10 -10 -16 -10 -5 0 -9 5 -9 10 0 6 7 10 16 10 8 0 12 -4 9 -10z m199 2
c3 -5 -1 -9 -9 -9 -8 0 -12 4 -9 9 3 4 7 8 9 8 2 0 6 -4 9 -8z m776 -7 c-7 -8
-17 -15 -23 -15 -6 0 -2 7 9 15 25 19 30 19 14 0z m-3120 -11 c0 -2 -11 -3
-24 -2 -14 1 -23 5 -20 9 4 7 44 0 44 -7z m2240 6 c0 -5 -4 -10 -10 -10 -5 0
-10 5 -10 10 0 6 5 10 10 10 6 0 10 -4 10 -10z m-316 -15 c-4 -8 -8 -15 -10
-15 -2 0 -4 7 -4 15 0 8 4 15 10 15 5 0 7 -7 4 -15z m80 0 c-4 -8 -10 -12 -15
-9 -11 6 -2 24 11 24 5 0 7 -7 4 -15z m1076 11 c0 -2 -7 -7 -16 -10 -8 -3 -12
-2 -9 4 6 10 25 14 25 6z m-2890 -12 c0 -10 -28 -34 -39 -34 -6 0 -11 5 -11
11 0 5 5 7 10 4 6 -3 13 1 16 9 6 15 24 23 24 10z m897 -8 c-2 -6 -11 -12 -20
-14 -11 -2 -15 1 -12 11 7 16 37 19 32 3z m73 -16 c0 -18 -19 -11 -30 11 -11
19 -10 20 9 9 12 -6 21 -15 21 -20z m253 15 c-3 -9 -8 -14 -10 -11 -3 3 -2 9
2 15 9 16 15 13 8 -4z m629 -7 c-12 -12 -35 -1 -27 12 3 5 13 6 21 3 10 -4 12
-9 6 -15z m-1962 -13 c0 -14 -4 -25 -8 -25 -7 0 -8 31 -3 48 4 11 11 -3 11
-23z m1305 16 c3 -5 1 -12 -5 -16 -5 -3 -10 1 -10 9 0 18 6 21 15 7z m565 -1
c0 -5 -5 -10 -11 -10 -5 0 -7 5 -4 10 3 6 8 10 11 10 2 0 4 -4 4 -10z m155 0
c-3 -5 -11 -10 -16 -10 -6 0 -7 5 -4 10 3 6 11 10 16 10 6 0 7 -4 4 -10z
m-2573 -15 c-13 -10 -18 -22 -15 -35 3 -12 0 -20 -7 -20 -7 0 -10 7 -6 15 3 8
0 15 -7 16 -9 0 -9 2 1 6 6 2 12 10 12 17 0 6 10 12 21 13 l22 2 -21 -14z
m1430 -17 c-8 -8 -9 -4 -5 13 4 13 8 18 11 10 2 -7 -1 -18 -6 -23z m97 8 c8
-6 16 -9 18 -8 3 2 7 1 11 -2 3 -3 0 -6 -6 -6 -6 0 -14 -9 -17 -21 -4 -11 -13
-18 -20 -16 -7 3 -18 0 -24 -6 -8 -8 -11 -8 -11 2 0 7 -12 -1 -26 -18 -14 -17
-23 -35 -19 -41 3 -6 0 -7 -9 -4 -19 7 -19 10 -6 33 8 15 5 18 -15 15 -15 -1
-25 3 -25 10 0 16 33 14 53 -3 21 -17 28 -1 22 49 l-5 42 32 -7 c18 -4 39 -12
47 -19z m1548 18 c-3 -3 -12 -4 -19 -1 -8 3 -5 6 6 6 11 1 17 -2 13 -5z
m-2881 -29 c-1 -22 -2 -23 -13 -9 -12 17 -9 34 7 34 4 0 7 -11 6 -25z m135 2
c-1 -4 -3 -7 -6 -7 -3 0 -9 0 -14 0 -5 0 -11 7 -14 14 -5 11 -1 13 14 7 11 -4
20 -10 20 -14z m943 2 c-8 -14 -21 -11 -21 5 0 8 6 12 14 9 7 -3 10 -9 7 -14z
m1946 -16 c0 -9 -6 -13 -14 -10 -10 4 -19 -5 -28 -24 -7 -16 -17 -29 -21 -29
-5 0 -5 4 -2 10 3 6 -4 9 -17 9 -13 -1 -31 2 -40 6 -11 4 -18 3 -18 -4 0 -22
-30 -10 -36 15 -10 38 15 51 42 21 26 -30 57 -32 49 -3 -6 21 -6 21 9 2 16
-20 21 -14 17 26 -2 15 2 16 28 7 17 -6 31 -18 31 -26z m-3193 2 c-4 -8 -11
-15 -17 -15 -6 0 -6 7 2 20 14 22 24 19 15 -5z m1333 15 c12 -8 11 -10 -7 -10
-13 0 -23 5 -23 10 0 13 11 13 30 0z m2010 6 c0 -2 3 -11 6 -20 3 -9 1 -16 -5
-16 -6 0 -11 7 -11 15 0 8 -4 15 -10 15 -14 0 -12 -23 3 -40 10 -12 9 -12 -5
-1 -15 11 -18 11 -18 1 0 -8 -2 -11 -5 -8 -13 13 8 58 26 58 10 0 19 -2 19 -4z
m-3454 -28 c4 4 2 -1 -5 -11 -12 -15 -12 -17 5 -11 18 5 18 5 1 -6 -23 -15
-36 -5 -29 22 4 16 2 19 -8 13 -9 -6 -11 -4 -5 5 6 10 11 10 20 -3 7 -9 16
-13 21 -9z m44 -13 c0 -5 -5 -3 -10 5 -5 8 -10 20 -10 25 0 6 5 3 10 -5 5 -8
10 -19 10 -25z m205 15 c-3 -5 -13 -6 -21 -3 -12 4 -13 8 -3 14 15 9 32 2 24
-11z m60 11 c3 -5 1 -12 -5 -16 -5 -3 -10 1 -10 9 0 18 6 21 15 7z m2695 -1
c0 -5 -2 -10 -4 -10 -3 0 -8 5 -11 10 -3 6 -1 10 4 10 6 0 11 -4 11 -10z m373
-16 c-7 -19 -10 -18 -16 5 -3 13 -1 18 9 14 7 -2 10 -11 7 -19z m129 12 c7 4
8 2 4 -5 -9 -13 -26 -5 -25 12 0 9 2 8 6 -1 2 -6 10 -9 15 -6z m-2224 -13 c-2
-14 5 -19 37 -21 22 -2 45 -8 50 -13 7 -7 4 -8 -7 -4 -11 5 -18 2 -18 -5 0
-10 -3 -10 -15 0 -8 7 -32 10 -53 8 -37 -3 -38 -2 -28 17 10 18 26 34 34 35 2
0 2 -8 0 -17z m642 13 c0 -3 -4 -8 -10 -11 -5 -3 -10 -1 -10 4 0 6 5 11 10 11
6 0 10 -2 10 -4z m1164 -12 c3 -8 2 -12 -4 -9 -6 3 -10 10 -10 16 0 14 7 11
14 -7z m-2059 -4 c-3 -5 -11 -10 -16 -10 -6 0 -7 5 -4 10 3 6 11 10 16 10 6 0
7 -4 4 -10z m87 -59 c-3 -8 -1 -12 5 -8 13 8 28 -9 36 -41 3 -14 0 -25 -10
-31 -13 -7 -12 -9 5 -13 17 -5 20 -2 17 23 -2 16 -1 29 3 29 16 0 32 -25 32
-47 0 -20 4 -23 26 -20 28 4 46 25 36 42 -3 5 2 4 11 -4 9 -7 17 -19 17 -25 0
-7 -4 -6 -9 2 -7 11 -9 11 -14 -1 -7 -18 8 -43 17 -28 4 6 13 11 19 11 9 0 9
-2 0 -8 -6 -4 -10 -19 -9 -33 2 -14 -3 -35 -11 -45 -13 -18 -15 -18 -27 -1
-14 18 -32 24 -21 7 12 -19 -8 -10 -30 14 -13 14 -26 22 -30 18 -4 -4 -6 -2
-5 3 5 23 -1 37 -13 32 -8 -3 -20 -1 -28 4 -11 7 -10 9 6 10 12 1 3 6 -20 14
-36 11 -38 13 -17 19 12 4 20 12 17 17 -4 5 -2 9 3 9 17 0 8 26 -15 43 -12 10
-23 13 -23 8 0 -5 5 -13 10 -16 6 -3 10 -11 10 -16 0 -10 -3 -8 -54 37 -27 24
-31 44 -4 28 19 -12 38 -14 38 -3 0 5 -8 9 -17 9 -14 1 -12 4 7 14 23 13 25
12 36 -12 6 -15 9 -33 6 -41z m1906 58 c-2 -6 3 -14 10 -16 6 -3 12 3 12 12 0
9 5 13 10 10 6 -4 8 -11 5 -16 -4 -5 6 -14 20 -19 35 -13 35 -13 28 8 -3 9 3
5 15 -10 12 -14 22 -32 22 -40 -1 -8 -6 -6 -17 7 -11 14 -14 15 -10 3 4 -10
-1 -18 -14 -21 -10 -3 -19 -1 -19 5 0 5 -4 7 -10 3 -5 -3 -7 -11 -4 -18 2 -7
-5 -18 -16 -25 -17 -10 -20 -10 -20 3 0 8 7 15 16 15 8 0 12 5 8 11 -4 7 -12
6 -22 -5 -14 -13 -14 -20 -4 -36 17 -27 15 -50 -2 -27 -7 9 -16 17 -19 17 -4
0 -4 -8 -1 -17 5 -15 4 -16 -5 -3 -6 9 -7 18 -1 24 6 6 10 18 10 28 0 19 47
48 77 48 13 0 11 4 -9 14 -15 8 -39 13 -53 12 -14 -2 -28 1 -32 7 -4 6 -1 7 7
2 10 -6 12 -4 7 7 -3 9 -3 19 0 22 9 9 13 7 11 -5z m872 -3 c0 -15 -24 -28
-34 -19 -12 12 -6 22 11 16 11 -4 14 -3 9 5 -4 7 -2 12 3 12 6 0 11 -6 11 -14z
m-363 -16 c3 -11 2 -11 -4 -3 -5 7 -14 9 -22 3 -8 -4 -20 -6 -28 -3 -7 3 -13
-1 -13 -8 0 -7 3 -9 6 -6 4 3 16 2 27 -4 14 -8 18 -8 13 0 -4 7 -1 9 8 5 8 -3
26 2 40 11 24 16 26 16 26 1 0 -10 -4 -15 -9 -11 -5 3 -26 -4 -45 -16 -20 -12
-36 -16 -36 -10 0 6 -9 11 -20 11 -22 0 -26 20 -9 37 16 16 62 11 66 -7z m83
16 c0 -3 -4 -8 -10 -11 -5 -3 -10 -1 -10 4 0 6 5 11 10 11 6 0 10 -2 10 -4z
m-2940 -10 c0 -3 -4 -8 -10 -11 -5 -3 -10 -1 -10 4 0 6 5 11 10 11 6 0 10 -2
10 -4z m90 -6 c0 -5 -8 -10 -17 -10 -15 0 -16 2 -3 10 19 12 20 12 20 0z
m2181 1 c0 8 4 4 9 -8 5 -13 14 -23 20 -23 6 0 9 -4 6 -9 -9 -14 5 -42 16 -35
6 4 5 10 -3 15 -11 7 -10 9 4 9 20 0 20 -1 7 -34 -5 -14 -14 -26 -20 -26 -6 0
-8 5 -5 10 3 6 -4 10 -16 10 -21 0 -21 1 -6 13 13 9 14 16 6 27 -9 12 -10 12
-5 -3 4 -12 2 -17 -6 -14 -7 2 -18 -3 -25 -12 -11 -14 -13 -14 -14 -1 -1 8 -3
25 -4 38 -1 12 2 22 7 22 6 0 7 7 4 16 -5 14 -4 15 9 4 12 -10 15 -10 16 1z
m-1301 -16 c12 4 20 2 20 -5 0 -6 -4 -9 -9 -5 -5 3 -13 0 -17 -6 -3 -6 -1 -15
6 -19 9 -6 3 -13 -21 -25 l-34 -18 19 21 c22 25 15 61 -8 40 -8 -7 -12 -16 -9
-20 2 -4 -4 -5 -13 -1 -15 5 -15 8 -2 17 8 6 13 17 10 24 -3 11 0 12 17 2 12
-6 31 -8 41 -5z m124 -1 c3 -8 2 -12 -4 -9 -6 3 -10 10 -10 16 0 14 7 11 14
-7z m-1697 0 c-3 -3 -12 -4 -19 -1 -8 3 -5 6 6 6 11 1 17 -2 13 -5z m3218 -4
c-3 -5 -10 -10 -16 -10 -5 0 -9 5 -9 10 0 6 7 10 16 10 8 0 12 -4 9 -10z
m-2428 -20 c1 -11 -2 -19 -6 -17 -5 1 -18 -9 -29 -23 -12 -14 -21 -19 -22 -12
0 6 5 12 10 12 6 0 9 3 8 8 -2 5 32 52 37 52 0 0 1 -9 2 -20z m963 12 c0 -4
-9 -13 -20 -20 -17 -10 -20 -10 -20 2 0 8 8 17 18 19 9 3 18 5 20 6 1 0 2 -2
2 -7z m100 -7 c-7 -8 -18 -15 -24 -15 -6 0 -2 7 8 15 25 19 32 19 16 0z m1505
5 c3 -5 1 -10 -4 -10 -6 0 -11 5 -11 10 0 6 2 10 4 10 3 0 8 -4 11 -10z
m-2831 -16 c3 -8 2 -12 -4 -9 -6 3 -10 10 -10 16 0 14 7 11 14 -7z m86 1 c10
-11 9 -18 -4 -30 -20 -20 -36 -11 -36 21 0 27 21 32 40 9z m863 0 c-3 -9 -8
-14 -10 -11 -3 3 -2 9 2 15 9 16 15 13 8 -4z m197 -20 c-13 -15 -36 -11 -43 9
-4 9 3 12 19 10 13 -1 24 3 25 9 0 8 2 8 6 -1 3 -7 0 -19 -7 -27z m1830 31 c0
-2 -7 -7 -16 -10 -8 -3 -12 -2 -9 4 6 10 25 14 25 6z m-3263 -21 c0 -17 -13
-20 -21 -6 -4 5 0 12 6 14 7 3 13 6 14 6 0 1 1 -6 1 -14z m258 -8 c0 -6 11
-18 25 -25 l25 -14 -25 6 c-14 3 -28 6 -32 6 -4 0 -7 11 -6 25 2 23 13 25 13
2z m815 13 c13 -8 13 -10 -2 -10 -29 0 -25 -23 8 -57 34 -33 54 -42 54 -22 0
5 -4 8 -9 5 -5 -4 -7 3 -4 14 4 16 8 18 20 9 8 -7 12 -18 9 -26 -3 -8 -1 -11
4 -8 6 3 10 13 10 21 0 15 12 19 23 8 8 -9 -32 -44 -50 -44 -7 0 -13 -4 -13
-10 0 -5 -11 -10 -25 -10 -14 0 -25 -5 -25 -11 0 -5 4 -8 9 -5 12 8 61 -11 61
-23 0 -5 -16 -5 -40 1 -27 7 -40 16 -40 28 0 26 -12 32 -26 12 -7 -9 -16 -14
-20 -10 -4 4 -1 15 6 23 11 13 11 18 0 28 -10 9 -11 9 -6 0 4 -7 5 -13 1 -13
-3 0 -9 10 -14 22 -6 17 -2 28 17 47 l26 25 -25 7 c-22 7 -22 7 6 8 17 0 37
-4 45 -9z m1462 -14 c12 -17 9 -26 -7 -26 -8 0 -15 -6 -15 -12 0 -7 -7 -3 -15
9 -18 26 -10 54 13 46 9 -4 20 -11 24 -17z m341 17 c-7 -2 -19 -2 -25 0 -7 3
-2 5 12 5 14 0 19 -2 13 -5z m-2208 -13 c3 -5 -1 -10 -10 -10 -9 0 -13 5 -10
10 3 6 8 10 10 10 2 0 7 -4 10 -10z m860 0 c-3 -5 -12 -10 -18 -10 -7 0 -6 4
3 10 19 12 23 12 15 0z m51 -18 c-4 -3 -14 2 -24 12 -16 18 -16 18 6 6 13 -6
21 -14 18 -18z m728 22 c12 -5 13 -10 4 -30 -15 -32 -25 -30 -26 6 -1 33 -1
33 22 24z m158 -16 c-7 -7 -12 -8 -12 -2 0 14 12 26 19 19 2 -3 -1 -11 -7 -17z
m734 -3 c-15 -14 -32 -25 -38 -25 -7 0 3 11 22 25 19 14 36 25 38 25 3 0 -7
-11 -22 -25z m-3043 -28 c-6 -9 -33 11 -33 25 0 5 5 6 10 3 6 -3 10 0 11 7 0
7 4 4 8 -7 5 -11 6 -24 4 -28z m442 25 c-3 -3 2 -14 12 -24 15 -17 15 -18 -1
-18 -9 0 -15 4 -11 9 7 12 -29 33 -41 23 -5 -4 -3 1 5 10 7 9 19 14 27 11 8
-3 12 -8 9 -11z m-400 -2 c-3 -5 -12 -10 -18 -10 -7 0 -6 4 3 10 19 12 23 12
15 0z m35 6 c0 -3 -4 -8 -10 -11 -5 -3 -10 -1 -10 4 0 6 5 11 10 11 6 0 10 -2
10 -4z m511 -6 c10 -6 19 -15 19 -21 0 -6 -4 -7 -10 -4 -5 3 -10 2 -10 -3 0
-6 -7 -12 -15 -16 -11 -4 -15 2 -15 24 0 33 3 35 31 20z m435 -17 c-10 -10
-19 5 -10 18 6 11 8 11 12 0 2 -7 1 -15 -2 -18z m319 17 c3 -6 -1 -7 -9 -4
-18 7 -21 14 -7 14 6 0 13 -4 16 -10z m775 0 c0 -5 -5 -10 -11 -10 -5 0 -7 5
-4 10 3 6 8 10 11 10 2 0 4 -4 4 -10z m884 2 c-5 -4 -12 -11 -15 -15 -3 -5 -9
-2 -12 5 -3 9 3 14 15 15 11 1 16 -1 12 -5z m-2469 -16 c12 -12 11 -14 -10
-12 -25 1 -31 7 -18 19 9 10 13 9 28 -7z m1711 3 c3 -6 -2 -18 -11 -27 -10
-10 -15 -12 -11 -6 3 7 -1 14 -9 18 -8 3 -15 0 -15 -6 0 -6 -3 -9 -6 -5 -4 3
-4 13 -1 22 7 17 43 20 53 4z m424 -1 c0 -8 3 -9 8 -3 4 6 15 11 25 13 13 2 9
-5 -15 -27 -18 -16 -35 -27 -38 -24 -3 3 1 8 8 10 18 7 4 23 -19 23 -11 0 -17
-4 -14 -10 3 -5 1 -10 -4 -10 -20 0 -11 20 12 30 31 12 37 12 37 -2z m-2489
-11 c-1 -12 -15 -9 -19 4 -3 6 1 10 8 8 6 -3 11 -8 11 -12z m149 -27 c7 -22
10 -43 7 -47 -4 -3 -7 -1 -7 5 0 8 -7 9 -24 2 -21 -7 -25 -5 -28 15 -4 21 -2
23 13 15 25 -14 29 -13 29 8 0 13 -2 14 -9 4 -7 -11 -10 -10 -15 3 -6 18 0 35
13 35 4 0 14 -18 21 -40z m737 34 c-3 -3 -12 -4 -19 -1 -8 3 -5 6 6 6 11 1 17
-2 13 -5z m-1259 -40 c-12 -26 -31 -34 -22 -9 5 11 2 13 -11 9 -16 -7 -16 -6
0 14 25 28 48 19 33 -14z m222 17 c0 -27 -15 -34 -31 -14 -10 12 -10 14 -1 9
7 -4 12 -1 12 8 0 9 5 16 10 16 6 0 10 -9 10 -19z m760 9 c0 -5 -4 -10 -10
-10 -5 0 -10 5 -10 10 0 6 5 10 10 10 6 0 10 -4 10 -10z m1630 -11 c0 -6 -4
-7 -10 -4 -5 3 -10 11 -10 16 0 6 5 7 10 4 6 -3 10 -11 10 -16z m65 5 c14 -9
22 -21 18 -27 -4 -6 -11 -4 -18 7 -12 15 -14 15 -29 1 -9 -9 -17 -14 -17 -11
-11 49 3 58 46 30z m275 -4 c0 -5 -8 -10 -17 -10 -15 0 -16 2 -3 10 19 12 20
12 20 0z m-2861 -22 c12 -16 11 -18 -13 -18 -19 0 -25 4 -20 13 5 8 2 8 -9 -2
-12 -9 -17 -10 -17 -2 0 9 43 35 45 27 1 0 7 -9 14 -18z m1165 7 c-4 -8 -8
-15 -10 -15 -2 0 -4 7 -4 15 0 8 4 15 10 15 5 0 7 -7 4 -15z m-594 -11 c0 -2
-7 -4 -15 -4 -8 0 -15 4 -15 10 0 5 7 7 15 4 8 -4 15 -8 15 -10z m680 -4 c26
-16 4 -21 -26 -5 -23 12 -25 15 -9 15 11 0 27 -4 35 -10z m1355 -4 c7 3 15 2
18 -3 3 -5 -10 -9 -28 -9 -24 0 -32 3 -28 13 4 10 9 11 16 4 5 -5 15 -7 22 -5z
m-2572 -47 c-6 -6 -7 3 -4 23 4 28 6 29 9 9 2 -13 0 -27 -5 -32z m2177 48 c0
-2 -10 -12 -22 -23 l-23 -19 19 23 c18 21 26 27 26 19z m760 -19 c0 -5 -4 -6
-10 -3 -12 7 -12 3 -4 -19 5 -13 9 -14 20 -5 8 6 21 9 29 5 9 -3 18 1 21 9 4
8 10 12 16 9 17 -11 -14 -36 -39 -29 -13 3 -23 1 -23 -4 0 -4 -12 -8 -27 -8
-16 0 -22 2 -15 4 19 7 14 23 -5 17 -14 -4 -15 -3 -5 4 8 5 13 12 13 16 -3 20
1 25 14 20 8 -4 15 -10 15 -16z m-1800 2 c8 -5 11 -10 5 -10 -5 0 -17 5 -25
10 -8 5 -10 10 -5 10 6 0 17 -5 25 -10z m166 -25 c3 -19 -10 -19 -26 0 -15 18
-3 42 13 26 6 -6 12 -18 13 -26z m1349 25 c-3 -5 -10 -10 -16 -10 -5 0 -9 5
-9 10 0 6 7 10 16 10 8 0 12 -4 9 -10z m405 0 c-8 -5 -19 -10 -25 -10 -5 0 -3
5 5 10 8 5 20 10 25 10 6 0 3 -5 -5 -10z m-3250 -14 c0 -10 -7 -12 -22 -8 -21
5 -21 6 -2 13 10 4 20 8 22 8 1 1 2 -5 2 -13z m623 -21 c-3 -9 -8 -14 -10 -11
-3 3 -2 9 2 15 9 16 15 13 8 -4z m2167 11 c0 -2 -7 -7 -16 -10 -8 -3 -12 -2
-9 4 6 10 25 14 25 6z m-2240 -15 c0 -5 -9 -11 -20 -14 -20 -5 -26 3 -13 16 9
10 33 8 33 -2z m190 -33 c8 -3 -3 -6 -24 -6 -22 0 -49 4 -60 8 -21 9 -21 9 1
9 12 1 25 6 28 12 5 7 12 6 23 -4 10 -8 24 -17 32 -19z m2050 17 c0 -2 -10 -9
-22 -15 -22 -11 -22 -10 -4 4 21 17 26 19 26 11z m370 -5 c-8 -5 -19 -10 -25
-10 -5 0 -3 5 5 10 8 5 20 10 25 10 6 0 3 -5 -5 -10z m-3510 -10 c-8 -5 -19
-10 -25 -10 -5 0 -3 5 5 10 8 5 20 10 25 10 6 0 3 -5 -5 -10z m1510 0 c8 -5
11 -10 5 -10 -5 0 -17 5 -25 10 -8 5 -10 10 -5 10 6 0 17 -5 25 -10z m-580
-35 c11 -13 10 -14 -4 -9 -9 3 -16 10 -16 15 0 13 6 11 20 -6z m657 -1 c2 -6
-3 -11 -10 -11 -8 0 -14 6 -14 14 0 15 19 12 24 -3z m-261 -27 c4 -4 0 -7 -9
-7 -9 0 -18 4 -21 9 -7 10 20 9 30 -2z m34 -1 c0 -3 -4 -8 -10 -11 -5 -3 -10
-1 -10 4 0 6 5 11 10 11 6 0 10 -2 10 -4z m347 -12 c-3 -3 -12 -4 -19 -1 -8 3
-5 6 6 6 11 1 17 -2 13 -5z m373 -44 c0 -5 -2 -10 -4 -10 -3 0 -8 5 -11 10 -3
6 -1 10 4 10 6 0 11 -4 11 -10z m1807 4 c-3 -3 -12 -4 -19 -1 -8 3 -5 6 6 6
11 1 17 -2 13 -5z m148 -24 c-3 -5 -12 -10 -18 -10 -7 0 -6 4 3 10 19 12 23
12 15 0z m-2034 -18 c-7 -2 -18 1 -23 6 -8 8 -4 9 13 5 13 -4 18 -8 10 -11z
m124 8 c3 -5 2 -10 -4 -10 -5 0 -13 5 -16 10 -3 6 -2 10 4 10 5 0 13 -4 16
-10z m-711 -15 c6 -16 -3 -19 -28 -9 -9 3 -13 10 -10 15 8 14 31 11 38 -6z
m657 5 c11 7 19 7 19 1 0 -5 -6 -12 -12 -14 -10 -4 -9 -8 2 -17 12 -8 6 -9
-22 -4 -37 6 -44 0 -39 -30 1 -5 -5 -4 -13 3 -9 7 -13 17 -10 22 3 5 -1 9 -8
9 -7 1 3 9 22 20 19 10 36 14 38 9 2 -5 12 -4 23 1z m-2416 -50 c3 -6 -1 -7
-9 -4 -18 7 -21 14 -7 14 6 0 13 -4 16 -10z m1952 4 c-3 -3 -12 -4 -19 -1 -8
3 -5 6 6 6 11 1 17 -2 13 -5z m-257 -8 c0 -3 -4 -8 -10 -11 -5 -3 -10 -1 -10
4 0 6 5 11 10 11 6 0 10 -2 10 -4z m95 -6 c3 -5 1 -10 -4 -10 -6 0 -11 5 -11
10 0 6 2 10 4 10 3 0 8 -4 11 -10z m-42 -7 c-7 -2 -19 -2 -25 0 -7 3 -2 5 12
5 14 0 19 -2 13 -5z m364 1 c-3 -3 -12 -4 -19 -1 -8 3 -5 6 6 6 11 1 17 -2 13
-5z m216 -8 c4 -10 1 -13 -9 -9 -7 3 -14 0 -14 -6 0 -15 -27 -14 -36 1 -5 7
-2 9 9 5 8 -3 21 1 27 9 15 17 17 17 23 0z m-433 -26 c0 -5 -5 -10 -11 -10 -5
0 -7 5 -4 10 3 6 8 10 11 10 2 0 4 -4 4 -10z m585 -18 c-3 -3 -11 0 -18 7 -9
10 -8 11 6 5 10 -3 15 -9 12 -12z m2316 -23 c7 -14 2 -25 -23 -51 l-32 -33 24
-3 c14 -2 31 -9 39 -15 12 -10 12 -9 1 10 -8 12 -20 19 -29 16 -14 -4 -14 -3
-1 5 8 6 17 9 21 6 4 -2 10 4 13 13 3 11 4 8 3 -7 -1 -14 2 -30 6 -37 10 -16
-37 -47 -58 -39 -9 3 -13 2 -10 -3 11 -18 -18 -24 -31 -6 -11 15 -10 22 7 46
11 16 19 37 17 47 -2 9 3 22 12 29 13 11 13 12 -3 13 -12 0 -16 4 -10 13 4 6
8 15 9 20 1 4 2 10 3 13 2 9 31 -17 42 -37z m-211 -2 c0 -5 -4 -5 -10 -2 -5 3
-10 14 -10 23 0 15 2 15 10 2 5 -8 10 -19 10 -23z m-2304 14 c-4 -5 -1 -11 6
-13 7 -3 5 -7 -6 -11 -11 -5 -15 -3 -10 5 5 7 -1 9 -19 4 -16 -4 -28 -1 -33 6
-4 7 -4 10 0 7 4 -4 19 -3 34 1 15 5 28 9 30 9 2 1 1 -3 -2 -8z m157 2 c-7 -2
-19 -2 -25 0 -7 3 -2 5 12 5 14 0 19 -2 13 -5z m1416 3 c-2 -1 -19 -8 -36 -14
-24 -8 -34 -8 -39 0 -4 6 -3 9 2 6 5 -3 18 -2 29 3 20 8 52 12 44 5z m779 -25
c3 -8 -3 -12 -14 -9 -23 4 -31 27 -8 24 10 -2 20 -8 22 -15z m-183 -15 c18 18
18 18 11 -10 -7 -27 -6 -28 11 -15 16 13 17 12 5 -3 -17 -21 -44 -120 -31
-112 5 3 16 -2 25 -11 15 -14 14 -15 -10 -11 -14 2 -28 1 -31 -4 -3 -5 -12 -7
-19 -4 -8 3 -17 1 -21 -5 -3 -6 -17 -11 -30 -11 -24 0 -36 -16 -27 -37 2 -7 9
-10 14 -7 6 4 7 -2 3 -17 -7 -21 -6 -22 7 -11 12 10 18 10 27 -2 9 -11 20 -12
47 -4 33 9 65 1 37 -9 -7 -3 -13 -10 -13 -15 0 -6 3 -8 7 -5 3 4 12 2 20 -4 8
-8 13 -8 13 -1 0 6 -6 13 -12 16 -7 3 -1 4 14 2 15 -1 25 1 22 5 -3 5 4 9 15
9 12 0 21 -5 21 -11 0 -6 9 -8 21 -4 18 6 20 5 10 -14 -7 -12 -18 -21 -26 -21
-7 0 -21 -3 -31 -7 -12 -4 -15 -3 -10 5 5 8 2 10 -8 6 -9 -3 -16 -11 -16 -16
0 -5 -6 -8 -12 -5 -7 2 -21 -3 -31 -11 -17 -15 -16 -16 13 -28 16 -7 30 -18
30 -24 0 -13 -27 -13 -35 0 -9 15 -25 12 -25 -5 0 -9 -9 -15 -25 -15 -14 0
-28 7 -31 15 -10 26 -22 16 -21 -17 2 -26 6 -32 21 -30 10 2 22 0 25 -5 3 -4
25 -21 49 -36 23 -15 42 -32 42 -37 0 -6 9 -6 25 0 25 9 25 9 9 -15 -11 -17
-23 -24 -38 -21 -35 7 -54 17 -60 32 -4 10 -11 11 -30 4 -21 -8 -24 -6 -21 10
3 13 -2 18 -16 17 -20 -1 -27 -17 -8 -17 5 0 8 -4 4 -9 -3 -5 -17 -8 -31 -5
-20 4 -27 0 -31 -16 -4 -13 -11 -19 -20 -16 -10 4 -12 2 -5 -11 9 -16 -10 -48
-29 -48 -4 0 -11 -4 -16 -8 -4 -5 -3 -8 2 -7 22 5 36 -1 29 -12 -5 -8 0 -9 15
-5 17 4 21 2 17 -9 -3 -8 1 -14 10 -14 11 0 13 6 9 20 -4 11 -2 20 4 20 6 0
11 8 11 17 0 15 2 14 15 -3 13 -18 14 -18 8 5 -4 17 -3 22 5 17 8 -5 12 1 13
16 0 18 2 20 7 6 5 -12 11 -15 22 -8 21 13 54 -18 39 -37 -6 -7 -18 -13 -26
-13 -12 0 -12 -3 1 -16 20 -20 21 -19 -15 -21 -25 -2 -29 0 -19 11 7 9 7 16 1
20 -6 4 -13 -10 -17 -30 -7 -37 -7 -37 -20 -13 -9 16 -13 19 -14 8 0 -12 -8
-14 -30 -11 -16 2 -28 7 -26 11 2 3 -15 7 -37 8 l-42 2 25 -19 c20 -16 22 -20
8 -20 -10 0 -18 -4 -18 -10 0 -10 5 -12 33 -14 31 -2 46 -46 16 -46 -6 0 -8 3
-6 8 3 4 -19 8 -48 8 -42 1 -52 -1 -48 -12 3 -8 -1 -14 -11 -14 -19 0 -21 -16
-3 -23 9 -4 8 -8 -3 -16 -9 -6 -16 -7 -18 -1 -2 6 -11 10 -19 10 -9 0 -13 6
-10 14 4 11 1 13 -10 9 -9 -4 -21 1 -29 12 -8 11 -14 13 -14 6 0 -7 -4 -9 -10
-6 -5 3 -10 1 -10 -4 0 -6 -7 -11 -16 -11 -8 0 -13 -4 -10 -9 11 -18 -20 -18
-42 -1 -22 18 -32 68 -11 54 7 -4 10 -1 7 7 -3 8 -18 14 -34 14 -16 0 -32 4
-35 8 -3 4 -18 3 -33 -3 -21 -8 -26 -15 -21 -30 8 -24 -2 -25 -30 -4 -16 12
-17 17 -7 23 11 7 11 9 -2 14 -9 4 -17 19 -17 34 -1 18 -3 22 -6 10 -3 -11
-11 -16 -19 -13 -7 3 -16 1 -19 -3 -3 -5 1 -11 8 -14 18 -7 20 -65 2 -83 -17
-18 -19 -6 -5 32 9 24 9 25 -5 14 -19 -16 -20 -59 -1 -66 8 -3 17 -12 20 -19
3 -9 0 -12 -8 -9 -16 6 -40 -21 -33 -39 3 -9 -4 -13 -22 -12 -20 0 -27 6 -30
25 -4 32 -20 41 -45 27 -40 -21 -70 -14 -81 20 -6 18 -15 36 -19 40 -5 4 -6 0
-3 -9 4 -10 2 -18 -3 -18 -6 0 -10 5 -10 10 0 6 -11 8 -25 4 -17 -4 -27 -2
-30 8 -3 8 -20 14 -40 14 -33 0 -40 -7 -35 -31 1 -5 -7 -1 -18 9 -20 17 -20
17 -27 -3 -5 -17 -10 -19 -25 -11 -10 6 -25 10 -32 9 -7 0 -4 -4 7 -8 17 -7
17 -8 -8 -13 -15 -3 -27 -1 -27 4 0 6 -7 7 -15 4 -8 -3 -22 -9 -30 -12 -10 -4
-15 0 -15 11 0 9 5 13 11 9 8 -4 8 0 0 15 -10 17 -9 22 4 27 9 4 14 13 10 21
-4 11 -1 13 10 9 9 -3 13 -2 10 3 -3 5 -1 12 5 16 21 13 9 26 -17 21 -19 -4
-35 0 -50 13 -27 23 -30 33 -5 24 16 -7 16 -6 0 10 -9 10 -15 25 -12 35 5 13
4 14 -4 3 -6 -8 -17 -11 -26 -8 -9 4 -16 2 -16 -3 0 -6 6 -10 14 -10 8 0 17
-4 21 -9 3 -6 -7 -8 -22 -5 -20 3 -24 2 -13 -5 8 -5 18 -7 22 -5 4 3 8 -9 8
-26 0 -38 18 -58 45 -53 16 4 17 3 5 -6 -13 -9 -13 -11 0 -11 10 0 11 -3 3
-11 -6 -6 -9 -19 -7 -28 2 -9 -2 -2 -10 14 -15 32 -56 75 -56 58 0 -5 9 -19
20 -31 11 -12 20 -30 20 -41 0 -11 5 -21 12 -23 18 -6 1 -25 -33 -37 -30 -10
-31 -10 -25 14 7 28 7 29 -27 16 -18 -7 -30 -6 -43 4 -11 8 -23 14 -29 14 -5
0 -2 -4 8 -10 26 -15 20 -26 -17 -31 -19 -2 -33 -1 -30 3 2 4 -1 9 -7 11 -6 2
-12 15 -12 30 -2 22 -6 26 -27 23 -14 -1 -32 4 -42 12 -12 11 -18 11 -24 2 -4
-7 -3 -10 3 -6 5 3 15 -9 21 -28 7 -25 7 -35 -1 -35 -11 0 0 -15 11 -15 4 0
12 -4 18 -8 7 -4 15 0 18 10 6 14 9 14 27 -6 11 -12 25 -18 31 -15 7 5 8 2 3
-6 -4 -7 -2 -16 6 -22 10 -7 5 -7 -16 -3 -46 11 -98 14 -110 7 -13 -9 -65 -9
-65 0 0 4 8 12 18 17 16 10 16 10 -2 11 -16 0 -17 3 -8 12 14 14 16 38 3 38
-5 0 -11 -9 -14 -21 -8 -31 -53 -23 -50 9 2 13 -1 21 -7 17 -6 -3 -10 -12 -10
-18 0 -21 -48 -17 -53 4 -3 11 -10 19 -17 19 -6 0 -9 -4 -6 -9 4 -5 -3 -7 -14
-4 -11 3 -18 9 -15 13 6 10 -24 22 -35 15 -5 -3 -11 -1 -15 5 -10 16 -25 11
-18 -6 5 -14 3 -15 -14 -5 -11 6 -23 17 -26 25 -3 8 -15 14 -27 13 -17 -1 -19
-3 -7 -12 15 -11 16 -50 2 -62 -4 -5 -5 1 -1 11 7 19 6 19 -13 2 -13 -12 -29
-16 -43 -13 -21 5 -21 5 -5 -7 22 -17 22 -26 -1 -26 -25 0 -22 36 5 66 24 26
22 29 -8 14 -27 -15 -42 -4 -28 22 6 11 7 18 1 14 -5 -3 -12 3 -15 14 -6 22 8
28 16 8 3 -10 9 -9 21 3 15 14 15 17 2 29 -9 7 -16 8 -16 2 0 -5 -9 -12 -20
-15 -14 -4 -18 -10 -13 -23 4 -12 3 -15 -5 -10 -7 4 -12 2 -12 -3 0 -6 5 -11
10 -11 6 0 10 -11 10 -25 0 -14 5 -25 11 -25 5 0 8 -4 4 -10 -3 -6 -15 -5 -31
2 -22 10 -28 9 -39 -6 -19 -25 -37 -10 -33 27 4 47 -23 41 -47 -9 -15 -31 -26
-42 -43 -41 -17 0 -21 4 -17 17 3 10 1 21 -4 24 -11 7 -36 -33 -33 -51 2 -7
-2 -13 -8 -13 -6 0 -8 5 -5 10 3 6 2 10 -4 10 -6 0 -7 8 -4 18 6 14 4 15 -8 5
-9 -7 -30 -11 -48 -8 -41 5 -53 15 -19 15 35 0 31 22 -9 48 -18 12 -33 18 -33
13 0 -5 -10 -7 -22 -3 -14 3 -19 1 -14 -6 8 -13 -30 -36 -49 -28 -20 7 -24
-15 -8 -51 8 -20 9 -33 3 -33 -5 0 -10 -5 -10 -11 0 -5 6 -7 13 -3 9 5 9 4 0
-6 -6 -7 -16 -9 -22 -6 -15 10 -14 43 2 49 7 3 4 6 -6 6 -14 1 -17 6 -12 21 8
24 -11 60 -30 60 -8 0 -15 4 -15 9 0 6 15 4 34 -4 27 -11 36 -12 40 -2 3 8 10
6 21 -8 16 -19 16 -19 10 6 -4 16 -2 30 4 33 18 12 12 43 -9 49 -16 4 -18 1
-13 -23 6 -34 -10 -41 -79 -36 -33 3 -48 0 -52 -10 -3 -8 -12 -11 -20 -8 -8 3
-17 1 -21 -5 -4 -7 0 -8 11 -4 13 5 16 2 12 -8 -4 -10 1 -15 12 -15 10 0 17 3
15 6 -2 3 0 12 6 20 7 13 9 12 9 -2 0 -11 5 -15 14 -12 10 4 12 -2 10 -23 -2
-15 -1 -22 2 -15 3 6 10 10 15 6 16 -10 10 -24 -11 -24 -11 0 -20 4 -20 9 0 5
-11 9 -25 9 -14 0 -25 -4 -25 -8 0 -8 39 -23 53 -21 9 2 41 -33 58 -61 8 -15
6 -18 -11 -18 -14 0 -19 4 -14 13 6 9 4 9 -8 -1 -14 -11 -17 -9 -23 19 -7 31
-8 32 -19 11 -8 -15 -15 -19 -26 -12 -8 5 -17 7 -21 4 -4 -2 -10 0 -13 5 -3 5
-15 7 -26 4 -11 -3 -20 -1 -20 5 0 6 8 13 18 15 9 2 3 4 -15 3 -17 0 -29 -4
-26 -8 8 -14 -11 -8 -45 12 -18 11 -30 25 -27 30 3 6 1 10 -5 10 -6 0 -9 4 -5
9 3 5 1 13 -5 16 -6 4 -9 1 -8 -7 2 -7 -4 -11 -12 -9 -8 1 -25 4 -36 5 -12 0
-21 6 -20 12 3 19 28 44 37 38 5 -3 9 4 9 16 0 12 4 18 10 15 6 -3 7 1 4 9 -3
9 -11 13 -18 9 -6 -4 -5 1 3 10 11 14 11 18 -5 24 -11 3 -22 11 -25 16 -4 5
-7 -8 -7 -29 -1 -81 -16 -112 -41 -86 -13 12 -17 10 -32 -19 -9 -18 -14 -40
-11 -48 4 -11 -1 -13 -21 -8 -16 5 -27 2 -30 -6 -4 -8 -6 -7 -6 4 -1 8 -12 25
-25 36 -23 20 -25 20 -40 4 -13 -14 -13 -20 -3 -30 10 -11 8 -11 -10 -2 -28
14 -29 26 -3 58 11 14 20 22 20 18 0 -4 7 -1 16 6 14 11 18 11 29 -4 12 -16
13 -16 18 3 5 20 -5 25 -45 22 -13 -1 -15 4 -8 27 10 35 0 54 -17 36 -9 -10
-9 -15 -1 -17 7 -3 8 -10 4 -17 -7 -11 -10 -11 -17 0 -6 10 -12 9 -30 -6 -19
-17 -21 -17 -16 -3 3 9 2 31 -3 47 -5 18 -5 33 1 36 14 9 11 22 -6 22 -10 0
-15 -10 -15 -28 0 -22 -4 -27 -17 -22 -12 5 -14 3 -8 -7 6 -10 4 -12 -9 -7
-10 4 -15 3 -11 -3 3 -6 12 -10 20 -10 23 0 10 -33 -14 -35 -17 -1 -21 3 -18
17 3 10 1 15 -5 12 -5 -4 -8 -19 -4 -34 4 -24 2 -27 -15 -23 -15 4 -17 9 -8
19 8 10 6 13 -10 11 -12 -1 -21 -8 -21 -17 0 -11 -7 -16 -22 -14 -13 1 -26 3
-30 3 -5 1 -8 8 -8 17 0 8 -4 13 -9 9 -6 -3 -8 19 -4 56 4 44 2 60 -6 55 -6
-4 -11 -1 -11 6 0 10 -3 9 -9 -2 -6 -8 -8 -17 -5 -21 2 -4 0 -10 -6 -14 -5 -3
-10 -15 -10 -26 0 -11 -4 -18 -9 -15 -4 3 -6 -6 -3 -20 4 -25 3 -25 -18 -14
-21 11 -22 10 -16 -6 3 -11 -2 -8 -15 9 -19 25 -42 37 -37 20 3 -14 -14 -78
-26 -92 -9 -12 -8 -13 4 -6 12 6 13 5 3 -5 -9 -10 -18 -11 -35 -2 -18 8 -19
11 -5 11 9 1 17 8 17 17 0 8 -5 12 -11 8 -8 -4 -8 -1 -1 12 5 11 8 27 7 37 -3
15 6 21 27 18 4 0 5 6 1 15 -5 13 -7 13 -14 2 -5 -7 -9 -8 -9 -3 0 6 -3 21 -7
34 -4 18 -3 22 6 17 8 -6 11 -2 9 10 -2 12 4 20 17 22 11 2 25 8 32 14 13 11
7 38 -9 38 -6 0 -8 -6 -5 -13 3 -8 -3 -14 -15 -14 -17 -2 -18 0 -6 15 9 13 7
12 -10 -2 -12 -11 -22 -14 -22 -9 0 15 27 36 38 30 4 -3 14 -1 22 4 12 8 12
12 2 16 -6 2 -9 9 -6 15 4 6 -2 5 -15 -1 -17 -10 -20 -9 -14 5 4 12 2 15 -8
12 -8 -3 -13 -11 -12 -17 4 -17 -14 -13 -21 5 -10 25 -7 46 5 38 8 -4 8 -1 1
13 -13 24 -5 60 15 67 9 4 12 1 8 -7 -4 -6 2 -2 13 10 15 17 22 19 31 10 10
-9 18 -5 39 21 25 30 30 32 55 23 17 -7 27 -7 27 -1 0 5 15 8 33 6 17 -2 40 0
49 5 10 6 19 5 23 -1 4 -6 10 -8 15 -5 12 8 123 17 182 15 25 0 49 3 52 8 6
11 64 3 72 -9 7 -12 24 -12 24 0 0 5 -12 14 -27 19 -47 16 99 25 182 12 39 -6
83 -13 99 -16 17 -2 34 -10 38 -18 4 -8 16 -12 27 -9 10 3 22 0 25 -6 4 -6 12
-11 17 -11 6 0 7 5 4 10 -4 6 7 10 24 10 17 0 31 -4 31 -10 0 -5 -9 -10 -21
-10 -11 0 -18 -4 -14 -10 3 -5 35 -8 70 -8 45 1 70 -3 82 -14 22 -19 75 -30
70 -14 -2 6 -16 11 -30 11 -15 1 -34 8 -43 17 -15 14 -13 16 18 16 43 1 72 6
135 25 28 9 54 13 57 10 3 -3 31 5 63 18 40 16 58 19 61 11 5 -16 42 -15 42 1
0 9 15 13 46 12 25 0 48 3 50 7 3 5 14 3 25 -2 10 -6 19 -8 19 -5 0 3 16 -1
35 -9 28 -12 67 -14 187 -10 226 8 254 10 268 19 8 5 19 0 30 -15 11 -15 19
-19 24 -11 5 8 13 8 27 1 15 -8 19 -7 19 4 0 17 23 25 65 22 17 -1 36 2 43 8
7 5 59 10 114 10 73 1 103 5 106 14 3 9 8 8 18 -5 9 -12 13 -14 14 -4 0 7 6
11 15 7 8 -3 15 0 15 6 0 6 6 6 16 -3 9 -7 21 -14 28 -16 144 -33 164 -35 149
-10 -4 7 -1 7 9 -1 12 -10 31 -11 65 -6 26 4 55 8 65 9 9 1 22 6 30 12 7 6 26
11 42 11 15 0 32 5 36 12 5 7 22 15 39 16 18 2 41 13 53 24 24 22 53 27 43 8
-4 -7 -1 -6 7 3 7 8 21 18 31 22 10 4 15 12 12 17 -4 6 -3 9 2 8 13 -3 57 14
65 26 5 7 11 5 20 -6 22 -30 121 4 102 34 -3 4 1 8 8 9 10 0 10 2 1 6 -25 10
-12 19 23 18 27 -2 34 1 29 13 -4 12 -3 12 9 3 11 -9 17 -9 28 2 11 12 14 12
24 0 9 -13 13 -13 29 3z m-1725 0 c0 -3 -4 -8 -10 -11 -5 -3 -10 -1 -10 4 0 6
5 11 10 11 6 0 10 -2 10 -4z m208 -20 c10 -6 10 -11 1 -22 -11 -14 -23 -20
-121 -63 -26 -12 -50 -25 -53 -31 -3 -5 -16 -10 -27 -10 -19 0 -19 1 5 20 14
11 29 20 34 20 11 0 63 59 63 71 0 23 69 33 98 15z m487 -6 c3 -6 -1 -7 -9 -4
-18 7 -21 14 -7 14 6 0 13 -4 16 -10z m-675 -41 c-19 -16 -39 -29 -45 -28 -5
0 -4 3 2 6 8 3 11 14 7 29 -7 26 10 34 20 8 3 -8 10 -12 16 -9 6 4 8 10 5 15
-3 4 1 10 7 13 27 9 22 -6 -12 -34z m361 8 c-8 -8 -14 -7 -23 2 -11 11 -10 13
5 8 12 -4 17 -1 18 11 0 12 2 13 6 4 3 -8 0 -19 -6 -25z m69 -1 c0 -4 -7 -3
-15 4 -8 6 -19 9 -24 5 -7 -3 -8 0 -5 9 5 12 9 13 25 3 10 -6 19 -16 19 -21z
m-1377 7 c-7 -2 -21 -2 -30 0 -10 3 -4 5 12 5 17 0 24 -2 18 -5z m291 -8 c-4
-8 -1 -15 7 -15 7 0 10 -2 7 -5 -3 -3 -13 -3 -22 1 -20 8 -21 34 -1 34 9 0 12
-6 9 -15z m59 3 c-6 -11 -31 -10 -37 1 -3 5 5 8 18 7 13 0 22 -4 19 -8z m667
8 c0 -2 -7 -9 -15 -16 -12 -10 -15 -10 -15 4 0 9 7 16 15 16 8 0 15 -2 15 -4z
m-530 -16 c0 -5 -10 -10 -22 -9 -22 0 -22 1 -3 9 11 5 21 9 23 9 1 1 2 -3 2
-9z m2578 -10 c15 0 15 -2 2 -10 -22 -14 -26 -12 -27 13 0 12 1 16 4 10 3 -7
12 -13 21 -13z m-2261 -3 c0 -8 -6 -14 -14 -14 -17 0 -17 14 0 20 6 3 12 6 13
6 0 1 1 -5 1 -12z m-686 -9 c1 -7 1 -17 0 -22 -1 -5 6 -5 16 -1 10 4 30 9 45
10 22 3 26 -1 23 -22 -2 -17 2 -23 11 -19 18 7 18 -2 0 -20 -18 -18 -27 -18
-20 -1 2 7 -4 22 -16 32 -17 16 -20 16 -20 2 0 -9 -15 -21 -35 -28 -19 -7 -35
-16 -35 -20 0 -14 -105 3 -120 19 -14 14 -13 15 3 3 11 -9 21 -10 30 -4 6 6
33 16 60 23 62 17 60 28 -3 20 -27 -4 -50 -3 -50 2 0 7 15 12 32 9 4 0 19 6
35 14 34 18 43 19 44 3z m864 2 c3 -6 -4 -10 -17 -10 -18 0 -20 2 -8 10 19 12
18 12 25 0z m-2516 -26 c10 -9 -35 -3 -49 6 -11 8 -7 9 15 4 17 -4 32 -8 34
-10z m655 5 c-4 -8 1 -9 16 -4 19 6 22 4 17 -9 -4 -10 -3 -15 3 -11 6 3 10 13
10 22 0 13 2 14 17 2 11 -10 14 -10 9 -1 -5 8 1 12 19 12 17 0 24 -4 19 -12
-5 -8 -2 -9 10 -5 11 4 15 3 11 -4 -4 -6 -13 -8 -21 -5 -7 3 -16 1 -19 -5 -4
-5 -10 -7 -15 -4 -5 3 -24 -1 -41 -10 -23 -13 -34 -14 -43 -5 -8 8 -7 10 7 5
10 -4 17 -2 17 4 0 6 -9 11 -20 11 -11 0 -20 -6 -20 -14 0 -7 -12 -16 -27 -19
-16 -3 -39 -8 -53 -12 -24 -6 -24 -6 -6 9 15 12 16 16 5 16 -12 0 -12 2 1 10
20 13 33 12 24 -2 -4 -7 -3 -8 4 -4 7 4 12 14 12 22 0 8 5 14 11 14 5 0 7 -4
4 -10 -3 -5 -2 -10 3 -10 6 0 12 7 16 15 3 8 13 15 21 15 9 0 13 -5 9 -11z
m846 -4 c-7 -8 -16 -12 -21 -9 -13 8 -1 24 18 24 13 0 13 -3 3 -15z m685 5 c3
-5 1 -10 -4 -10 -6 0 -11 5 -11 10 0 6 2 10 4 10 3 0 8 -4 11 -10z m-1235 -25
c10 -16 10 -18 -1 -7 -7 6 -20 12 -28 12 -12 0 -13 -2 -3 -8 9 -6 5 -12 -14
-21 -17 -7 -31 -8 -37 -2 -6 6 -3 9 8 8 10 -1 20 4 23 12 3 10 -2 11 -19 7
-22 -7 -23 -6 -6 7 25 20 63 16 77 -8z m820 15 c0 -5 -4 -10 -10 -10 -5 0 -10
5 -10 10 0 6 5 10 10 10 6 0 10 -4 10 -10z m375 0 c3 -5 2 -10 -4 -10 -5 0
-13 5 -16 10 -3 6 -2 10 4 10 5 0 13 -4 16 -10z m195 -12 c0 -6 -7 -8 -15 -4
-8 3 -14 0 -12 -7 1 -6 -9 -13 -23 -15 -24 -3 -25 -3 -5 12 12 9 15 15 7 16
-7 0 -11 4 -8 9 7 11 56 2 56 -11z m-1510 2 c-11 -7 -11 -10 -2 -10 7 0 10 -4
7 -10 -10 -17 -25 -11 -25 10 0 12 7 20 18 20 14 0 15 -2 2 -10z m160 6 c0
-11 -19 -15 -25 -6 -3 5 1 10 9 10 9 0 16 -2 16 -4z m940 0 c0 -2 -7 -7 -16
-10 -8 -3 -12 -2 -9 4 6 10 25 14 25 6z m335 -6 c4 -6 1 -9 -7 -8 -7 2 -12 -5
-11 -16 1 -11 -2 -15 -8 -9 -11 11 -2 43 11 43 5 0 12 -5 15 -10z m2275 0 c0
-5 -5 -10 -11 -10 -5 0 -7 5 -4 10 3 6 8 10 11 10 2 0 4 -4 4 -10z m-3010 -10
c0 -5 -4 -10 -10 -10 -5 0 -10 5 -10 10 0 6 5 10 10 10 6 0 10 -4 10 -10z
m260 0 c0 -5 -5 -10 -11 -10 -5 0 -7 5 -4 10 3 6 8 10 11 10 2 0 4 -4 4 -10z
m-1055 -10 c3 -5 -1 -10 -9 -10 -9 0 -16 5 -16 10 0 6 4 10 9 10 6 0 13 -4 16
-10z m1109 -5 c3 -8 1 -15 -4 -15 -6 0 -10 5 -10 11 0 5 -4 7 -10 4 -5 -3 -10
-1 -10 4 0 17 27 13 34 -4z m2516 5 c0 -5 -5 -10 -11 -10 -5 0 -7 5 -4 10 3 6
8 10 11 10 2 0 4 -4 4 -10z m218 -21 c-3 -8 -7 -3 -11 10 -4 17 -3 21 5 13 5
-5 8 -16 6 -23z m-2618 11 c0 -5 -7 -7 -15 -4 -8 4 -15 8 -15 10 0 2 7 4 15 4
8 0 15 -4 15 -10z m-505 -10 c3 -5 1 -10 -4 -10 -6 0 -11 5 -11 10 0 6 2 10 4
10 3 0 8 -4 11 -10z m-1145 -16 c0 -8 -5 -12 -10 -9 -6 4 -8 11 -5 16 9 14 15
11 15 -7z m40 12 c0 -2 -7 -9 -15 -16 -13 -11 -14 -10 -9 4 5 14 24 23 24 12z
m900 -11 c-7 -9 -15 -13 -19 -10 -3 3 1 10 9 15 21 14 24 12 10 -5z m-1028
-14 c10 6 18 6 18 1 0 -18 -39 -20 -52 -3 -10 13 -10 14 2 4 9 -8 19 -9 32 -2z
m998 -5 c0 -2 -7 -7 -16 -10 -8 -3 -12 -2 -9 4 6 10 25 14 25 6z m-1080 -26
c0 -5 -4 -10 -10 -10 -5 0 -10 5 -10 10 0 6 5 10 10 10 6 0 10 -4 10 -10z
m-144 -29 c-4 -6 -13 -11 -19 -11 -8 0 -7 3 2 9 8 5 10 14 6 22 -6 11 -5 11 5
2 7 -6 9 -16 6 -22z m44 5 c0 -2 -7 -7 -16 -10 -8 -3 -12 -2 -9 4 6 10 25 14
25 6z m4271 -119 c4 -16 3 -25 -2 -21 -5 3 -9 14 -9 25 0 11 -4 18 -9 14 -5
-3 -12 -1 -15 4 -4 5 2 8 11 7 9 -2 20 -15 24 -29z m-84 17 c-3 -3 -12 -4 -19
-1 -8 3 -5 6 6 6 11 1 17 -2 13 -5z m-3787 -49 c14 -19 14 -19 -2 -6 -10 7
-18 18 -18 24 0 6 1 8 3 6 1 -2 9 -13 17 -24z m67 -48 c16 6 27 -21 19 -43 -5
-12 -8 -13 -20 -2 -10 9 -11 17 -3 26 6 7 6 12 1 11 -20 -4 -32 2 -38 18 -6
15 -5 16 11 1 10 -8 24 -13 30 -11z m3854 -24 c-12 -20 -14 -14 -5 12 4 9 9
14 11 11 3 -2 0 -13 -6 -23z m-38 -33 c-8 -29 -21 -34 -18 -7 3 27 3 27 14 27
5 0 7 -9 4 -20z m61 -6 c5 -14 4 -15 -9 -4 -17 14 -19 20 -6 20 5 0 12 -7 15
-16z m-3824 -19 c-7 -8 -17 -12 -24 -8 -7 5 -7 2 1 -8 10 -12 8 -17 -8 -27
-19 -12 -19 -11 -8 10 7 13 11 25 10 28 -1 2 6 7 16 11 26 11 27 11 13 -6z
m3787 -27 c-3 -8 -6 -5 -6 6 -1 11 2 17 5 13 3 -3 4 -12 1 -19z m-3767 -15 c0
-5 -9 -19 -20 -33 -15 -19 -20 -21 -20 -8 0 9 7 24 16 32 17 18 24 20 24 9z
m3694 -9 c3 -8 2 -12 -4 -9 -6 3 -10 10 -10 16 0 14 7 11 14 -7z m-79 -64 c3
-5 -3 -10 -14 -10 -12 0 -21 5 -21 10 0 6 6 10 14 10 8 0 18 -4 21 -10z m35
-40 c8 -5 11 -10 5 -10 -5 0 -17 5 -25 10 -8 5 -10 10 -5 10 6 0 17 -5 25 -10z
m-3582 -50 c-2 -5 -9 -6 -16 -1 -7 4 -10 15 -6 25 6 17 8 17 16 2 5 -9 8 -21
6 -26z m2297 30 c-3 -5 -11 -10 -16 -10 -6 0 -7 5 -4 10 3 6 11 10 16 10 6 0
7 -4 4 -10z m1105 -12 c0 -7 -4 -19 -9 -27 -6 -9 -8 -5 -8 13 0 14 3 26 8 26
5 0 9 -6 9 -12z m-3330 -28 c0 9 4 9 13 3 6 -6 20 -9 29 -8 10 2 20 -1 24 -6
3 -5 10 -6 16 -3 7 4 8 2 4 -4 -4 -6 -14 -8 -24 -5 -13 5 -15 4 -7 -8 6 -8 3
-7 -6 2 -9 10 -20 14 -25 9 -5 -4 -18 -10 -28 -12 -14 -2 -19 3 -21 19 -1 18
1 20 12 12 10 -9 13 -8 13 1z m-40 -16 c0 -8 -4 -13 -8 -10 -5 3 -8 -4 -8 -16
1 -15 -7 -23 -27 -29 -16 -4 -25 -4 -21 2 3 5 0 9 -7 9 -10 0 -10 3 -2 11 6 6
9 19 5 27 -5 14 -4 15 10 2 9 -8 14 -18 12 -21 -2 -4 3 -10 11 -13 13 -4 13
-2 5 14 -8 15 -6 21 7 29 23 13 23 14 23 -5z m2947 0 c2 -7 -8 -9 -27 -6 -41
6 -49 22 -9 19 18 -1 34 -7 36 -13z m-2687 -22 c-6 -2 -10 -11 -10 -19 0 -9
-2 -14 -5 -11 -4 3 -3 18 1 33 5 20 9 23 15 13 5 -7 4 -14 -1 -16z m254 2 c3
-8 2 -12 -4 -9 -6 3 -10 10 -10 16 0 14 7 11 14 -7z m2980 3 c3 3 6 -1 6 -9 0
-9 -9 -18 -20 -21 -12 -3 -17 -1 -14 5 3 5 0 9 -7 7 -25 -3 -39 1 -39 11 0 5
7 7 15 4 8 -4 15 -1 15 5 0 8 6 9 19 2 10 -6 21 -7 25 -4z m-3667 -19 c-3 -8
-6 -5 -6 6 -1 11 2 17 5 13 3 -3 4 -12 1 -19z m3423 13 c0 -6 -4 -13 -10 -16
-5 -3 -10 1 -10 9 0 9 5 16 10 16 6 0 10 -4 10 -9z m-1600 -11 c0 -5 -4 -10
-10 -10 -5 0 -10 5 -10 10 0 6 5 10 10 10 6 0 10 -4 10 -10z m1342 -14 c3 2 8
-1 11 -9 10 -25 -21 -14 -32 12 -10 23 -10 24 2 9 8 -10 16 -15 19 -12z m533
3 c-4 -5 1 -12 9 -15 9 -3 16 -11 16 -17 0 -5 -8 -3 -18 6 -18 17 -27 51 -10
41 5 -3 6 -10 3 -15z m-3640 2 c3 -5 1 -12 -5 -16 -5 -3 -10 -1 -10 5 0 6 -4
8 -10 5 -5 -3 -10 -1 -10 4 0 13 27 14 35 2z m319 -3 c-5 -9 -2 -9 9 1 15 11
17 11 17 -2 0 -8 6 -18 13 -21 6 -4 2 -4 -10 -2 -13 2 -23 0 -23 -4 0 -11 -39
0 -47 13 -4 7 0 8 11 4 14 -5 17 -3 12 8 -3 9 0 15 10 15 9 0 12 -5 8 -12z
m108 -8 c0 -11 1 -26 2 -32 1 -7 -5 -12 -13 -10 -8 2 -11 -3 -8 -13 4 -8 2
-15 -3 -15 -6 0 -10 2 -10 4 0 2 -3 12 -6 21 -4 10 -2 15 7 13 10 -2 13 5 11
25 -2 15 1 27 7 27 6 0 12 -9 13 -20z m222 -35 c-22 -34 -26 -28 -13 20 9 32
13 36 20 22 7 -11 5 -24 -7 -42z m434 38 c-6 -7 -12 -13 -13 -13 -2 0 -5 6 -8
13 -3 7 3 13 14 13 13 0 15 -3 7 -13z m338 -6 c3 -3 0 -13 -9 -21 -13 -14 -16
-14 -21 0 -3 9 -6 19 -6 24 0 9 26 7 36 -3z m84 3 c8 -5 11 -10 5 -10 -5 0
-17 5 -25 10 -8 5 -10 10 -5 10 6 0 17 -5 25 -10z m564 -6 c3 -8 2 -12 -4 -9
-6 3 -10 10 -10 16 0 14 7 11 14 -7z m1009 1 c8 -18 -11 -31 -25 -17 -11 11
-3 32 12 32 4 0 10 -7 13 -15z m-1926 -29 c-7 -17 -49 -15 -55 3 -3 8 1 12 9
9 8 -3 20 2 28 10 16 16 27 2 18 -22z m1423 18 c0 -2 -7 -4 -15 -4 -8 0 -15 4
-15 10 0 5 7 7 15 4 8 -4 15 -8 15 -10z m47 10 c-3 -3 -12 -4 -19 -1 -8 3 -5
6 6 6 11 1 17 -2 13 -5z m-1440 -26 c-3 -8 -6 -5 -6 6 -1 11 2 17 5 13 3 -3 4
-12 1 -19z m281 -15 c1 -24 0 -25 -9 -10 -5 9 -7 22 -4 27 9 15 10 13 13 -17z
m176 -5 c7 -5 4 -8 -6 -8 -12 0 -18 7 -17 23 0 15 2 17 6 7 3 -8 11 -18 17
-22z m601 22 c-3 -5 -13 -10 -21 -10 -8 0 -14 5 -14 10 0 6 9 10 21 10 11 0
17 -4 14 -10z m552 -12 c-3 -8 -6 -5 -6 6 -1 11 2 17 5 13 3 -3 4 -12 1 -19z
m397 13 c4 -5 -3 -7 -14 -4 -23 6 -26 13 -6 13 8 0 17 -4 20 -9z m-3126 -26
c-3 -3 -9 2 -12 12 -6 14 -5 15 5 6 7 -7 10 -15 7 -18z m300 0 c-3 -3 -9 2
-12 12 -6 14 -5 15 5 6 7 -7 10 -15 7 -18z m1490 0 c-3 -3 -9 2 -12 12 -6 14
-5 15 5 6 7 -7 10 -15 7 -18z m27 15 c3 -5 1 -10 -4 -10 -6 0 -11 5 -11 10 0
6 2 10 4 10 3 0 8 -4 11 -10z m1175 0 c0 -5 -4 -10 -10 -10 -5 0 -10 5 -10 10
0 6 5 10 10 10 6 0 10 -4 10 -10z m-2309 -28 c7 21 10 21 13 -1 0 -5 4 -13 9
-17 14 -15 6 -20 -23 -16 -16 2 -30 8 -30 12 0 4 -11 5 -25 2 -20 -3 -23 -7
-15 -17 9 -11 7 -12 -9 -8 -17 4 -19 8 -9 27 17 33 30 36 57 14 l26 -20 6 24z
m1469 14 c0 -11 -19 -15 -25 -6 -3 5 1 10 9 10 9 0 16 -2 16 -4z m537 -2 c-3
-3 -12 -4 -19 -1 -8 3 -5 6 6 6 11 1 17 -2 13 -5z m-42 -14 c-3 -5 -10 -10
-16 -10 -5 0 -9 5 -9 10 0 6 7 10 16 10 8 0 12 -4 9 -10z m-2404 -13 c-6 -8
-8 -17 -4 -20 3 -4 1 -7 -5 -7 -15 0 -15 13 0 28 16 16 23 15 9 -1z m210 -10
c-10 -9 -11 -8 -5 6 3 10 9 15 12 12 3 -3 0 -11 -7 -18z m105 -2 c-9 -9 -20
-13 -26 -10 -5 3 -10 1 -10 -4 0 -6 -4 -11 -10 -11 -21 0 -9 17 23 31 38 18
45 16 23 -6z m215 15 c5 0 9 -5 9 -11 0 -5 -4 -7 -10 -4 -5 3 -10 0 -10 -8 0
-10 -7 -13 -20 -10 -20 5 -26 23 -13 37 4 3 13 4 21 1 7 -3 18 -5 23 -5z
m-431 -15 c0 -8 -4 -15 -8 -15 -5 0 -9 7 -9 15 0 8 4 15 9 15 4 0 8 -7 8 -15z
m2415 5 c3 -5 1 -10 -4 -10 -6 0 -11 5 -11 10 0 6 2 10 4 10 3 0 8 -4 11 -10z
m-2751 -9 c4 -5 -3 -7 -14 -4 -23 6 -26 13 -6 13 8 0 17 -4 20 -9z m1046 -15
c0 -20 -14 -28 -36 -19 -16 6 -16 7 2 20 23 17 34 17 34 -1z m50 -6 c-21 -21
-35 -27 -25 -10 3 6 0 10 -7 11 -7 0 -4 4 7 9 35 15 46 11 25 -10z m91 10 c19
0 28 -4 24 -11 -8 -12 -65 -2 -80 14 -7 7 -4 8 8 3 10 -3 32 -6 48 -6z m343 4
c9 -3 16 -10 16 -15 0 -13 -23 -10 -44 6 -16 12 -17 15 -4 15 9 0 23 -3 32 -6z
m-644 -23 c0 -4 -7 -8 -15 -8 -16 0 -20 9 -9 20 8 8 24 -1 24 -12z m505 8 c11
-17 -1 -21 -15 -4 -8 9 -8 15 -2 15 6 0 14 -5 17 -11z m-1465 -3 c0 -2 -8 -10
-17 -17 -16 -13 -17 -12 -4 4 13 16 21 21 21 13z m1000 -18 c0 -18 -2 -20 -9
-8 -6 8 -7 18 -5 22 9 14 14 9 14 -14z m335 12 c3 -6 -1 -13 -10 -16 -19 -8
-30 0 -20 15 8 14 22 14 30 1z m-656 -39 c-6 -2 -18 4 -27 13 -15 15 -15 15
10 4 15 -7 23 -15 17 -17z m111 14 c0 -8 -2 -15 -4 -15 -2 0 -6 7 -10 15 -3 8
-1 15 4 15 6 0 10 -7 10 -15z m-282 -61 c0 -15 -4 -22 -10 -16 -5 5 -6 16 -2
25 9 23 12 21 12 -9z m288 -259 c9 -8 11 -15 5 -15 -5 0 -13 5 -16 10 -4 7
-12 7 -25 0 -10 -5 -21 -10 -23 -10 -8 0 -17 32 -12 41 7 10 51 -6 71 -26z
m689 5 c-3 -5 -11 -10 -16 -10 -6 0 -7 5 -4 10 3 6 11 10 16 10 6 0 7 -4 4
-10z m-775 -4 c0 -2 -7 -6 -15 -10 -8 -3 -15 -1 -15 4 0 6 7 10 15 10 8 0 15
-2 15 -4z m717 -2 c-3 -3 -12 -4 -19 -1 -8 3 -5 6 6 6 11 1 17 -2 13 -5z"/>
<path d="M10000 5737 c0 -9 51 -59 56 -54 2 2 -10 16 -26 32 -17 16 -30 26
-30 22z"/>
<path d="M10065 5669 c-4 -6 -5 -12 -2 -15 2 -3 7 2 10 11 7 17 1 20 -8 4z"/>
<path d="M10097 5636 c10 -13 21 -22 25 -20 8 5 -22 44 -35 44 -4 0 0 -11 10
-24z"/>
<path d="M10271 5364 c0 -11 3 -14 6 -6 3 7 2 16 -1 19 -3 4 -6 -2 -5 -13z"/>
<path d="M5295 5229 c-4 -6 -3 -15 3 -21 6 -6 11 -4 15 6 7 18 -9 31 -18 15z"/>
<path d="M5400 5225 c0 -8 5 -15 10 -15 6 0 10 7 10 15 0 8 -4 15 -10 15 -5 0
-10 -7 -10 -15z"/>
<path d="M5475 5210 c3 -5 10 -10 16 -10 5 0 9 5 9 10 0 6 -7 10 -16 10 -8 0
-12 -4 -9 -10z"/>
<path d="M5458 5145 c-23 -31 -23 -37 5 -33 16 2 23 11 25 31 4 33 -7 34 -30
2z"/>
<path d="M5458 5083 c-10 -2 -18 -9 -18 -14 0 -12 2 -12 41 6 33 14 18 19 -23
8z"/>
<path d="M5360 5030 c0 -5 9 -10 21 -10 11 0 17 5 14 10 -3 6 -13 10 -21 10
-8 0 -14 -4 -14 -10z"/>
<path d="M8045 4990 c-3 -6 1 -7 9 -4 18 7 21 14 7 14 -6 0 -13 -4 -16 -10z"/>
<path d="M5945 4610 c-3 -5 -1 -10 4 -10 6 0 11 5 11 10 0 6 -2 10 -4 10 -3 0
-8 -4 -11 -10z"/>
<path d="M10577 4603 c-10 -9 -9 -23 1 -23 5 0 9 7 9 15 0 17 -1 18 -10 8z"/>
<path d="M5905 4571 c-3 -5 -1 -12 5 -16 5 -3 10 1 10 9 0 18 -6 21 -15 7z"/>
<path d="M5800 4559 c0 -5 5 -7 10 -4 6 3 10 8 10 11 0 2 -4 4 -10 4 -5 0 -10
-5 -10 -11z"/>
<path d="M5555 4419 c-4 -6 -4 -13 -1 -16 3 -4 6 -1 6 5 0 6 7 9 17 5 11 -4
14 -3 9 5 -9 15 -23 15 -31 1z"/>
<path d="M5493 4343 c-15 -5 -17 -23 -4 -23 5 0 11 7 15 15 3 8 4 15 3 14 -1
0 -8 -3 -14 -6z"/>
<path d="M8605 4800 c-3 -5 1 -10 10 -10 9 0 13 5 10 10 -3 6 -8 10 -10 10 -2
0 -7 -4 -10 -10z"/>
<path d="M8500 4790 c-23 -7 -23 -8 -3 -9 12 -1 25 4 28 9 3 6 5 10 3 9 -2 -1
-14 -5 -28 -9z"/>
<path d="M8148 4758 c9 -9 15 -9 24 0 9 9 7 12 -12 12 -19 0 -21 -3 -12 -12z"/>
<path d="M8286 4746 c7 -19 20 -21 30 -3 4 6 4 9 -1 5 -4 -4 -14 -3 -22 4 -11
8 -12 7 -7 -6z"/>
<path d="M8908 4726 c-23 -17 -23 -22 1 -22 11 0 17 4 14 9 -3 5 1 13 8 18 8
5 10 9 4 9 -5 -1 -18 -7 -27 -14z"/>
<path d="M9037 4729 c7 -7 15 -10 18 -7 3 3 -2 9 -12 12 -14 6 -15 5 -6 -5z"/>
<path d="M8360 4720 c-9 -6 -10 -10 -3 -10 6 0 15 5 18 10 8 12 4 12 -15 0z"/>
<path d="M7674 4689 c-15 -6 -12 -8 12 -8 38 -1 47 -10 31 -30 -11 -14 -10
-14 5 -2 10 7 16 17 13 21 -3 5 1 10 7 13 7 2 -1 6 -18 8 -17 3 -40 2 -50 -2z"/>
<path d="M8971 4683 c7 -12 15 -20 18 -17 3 2 -3 12 -13 22 -17 16 -18 16 -5
-5z"/>
<path d="M8534 4679 c-3 -6 -2 -15 4 -21 6 -6 12 -6 17 3 6 8 4 10 -5 4 -10
-6 -12 -4 -7 8 7 19 2 23 -9 6z"/>
<path d="M9236 4677 c3 -10 9 -15 12 -12 3 3 0 11 -7 18 -10 9 -11 8 -5 -6z"/>
<path d="M8300 4670 c-12 -8 -10 -10 8 -10 13 0 20 4 17 10 -7 12 -6 12 -25 0z"/>
<path d="M8699 4657 l-12 -22 23 20 c12 11 24 19 27 17 3 -2 6 -2 8 0 2 2 -5
4 -15 5 -11 1 -25 -8 -31 -20z"/>
<path d="M9026 4672 c-2 -4 0 -14 6 -22 8 -12 9 -12 5 2 -3 9 -1 19 6 22 9 3
9 5 0 5 -6 1 -14 -3 -17 -7z"/>
<path d="M7525 4660 c-17 -7 -14 -9 13 -9 20 -1 31 3 27 9 -7 12 -13 12 -40 0z"/>
<path d="M7070 4645 c0 -8 2 -15 4 -15 2 0 6 7 10 15 3 8 1 15 -4 15 -6 0 -10
-7 -10 -15z"/>
<path d="M8470 4648 c0 -4 6 -8 14 -8 8 0 17 4 20 8 2 4 -4 8 -15 8 -10 0 -19
-4 -19 -8z"/>
<path d="M7387 4643 c-3 -5 6 -9 19 -9 13 -1 21 2 18 7 -6 11 -31 12 -37 2z"/>
<path d="M7450 4640 c-8 -5 -10 -10 -5 -10 6 0 17 5 25 10 8 5 11 10 5 10 -5
0 -17 -5 -25 -10z"/>
<path d="M7676 4642 c-3 -5 1 -9 9 -9 8 0 15 4 15 9 0 4 -4 8 -9 8 -6 0 -12
-4 -15 -8z"/>
<path d="M7980 4646 c0 -2 7 -7 16 -10 8 -3 12 -2 9 4 -6 10 -25 14 -25 6z"/>
<path d="M7480 4630 c-9 -6 -10 -10 -3 -10 6 0 15 5 18 10 8 12 4 12 -15 0z"/>
<path d="M7615 4630 c3 -5 8 -10 11 -10 2 0 4 5 4 10 0 6 -5 10 -11 10 -5 0
-7 -4 -4 -10z"/>
<path d="M8518 4633 c7 -3 16 -2 19 1 4 3 -2 6 -13 5 -11 0 -14 -3 -6 -6z"/>
<path d="M8928 4633 c7 -3 16 -2 19 1 4 3 -2 6 -13 5 -11 0 -14 -3 -6 -6z"/>
<path d="M6795 4620 c4 -6 11 -8 16 -5 14 9 11 15 -7 15 -8 0 -12 -5 -9 -10z"/>
<path d="M7278 4623 c6 -2 18 -2 25 0 6 3 1 5 -13 5 -14 0 -19 -2 -12 -5z"/>
<path d="M8038 4623 c7 -3 16 -2 19 1 4 3 -2 6 -13 5 -11 0 -14 -3 -6 -6z"/>
<path d="M6965 4604 c-11 -8 -28 -13 -38 -10 -9 2 -14 0 -11 -6 3 -5 -3 -12
-14 -15 -17 -4 -18 -8 -9 -18 13 -14 31 -9 22 6 -4 5 -3 9 2 9 4 0 26 11 48
25 22 13 36 24 30 24 -5 0 -19 -6 -30 -15z"/>
<path d="M7316 4601 c-19 -7 -19 -8 2 -13 12 -4 20 -2 17 2 -3 5 1 11 7 13 7
3 9 5 3 6 -5 0 -19 -4 -29 -8z"/>
<path d="M7256 4562 c-3 -4 4 -9 15 -9 23 -2 25 3 4 10 -8 4 -16 3 -19 -1z"/>
<path d="M7611 4554 c0 -11 3 -14 6 -6 3 7 2 16 -1 19 -3 4 -6 -2 -5 -13z"/>
<path d="M7671 4543 c-16 -17 -18 -24 -8 -20 9 3 17 1 19 -5 6 -17 42 13 46
37 2 16 1 17 -7 5 -7 -10 -11 -11 -11 -2 0 19 -14 14 -39 -15z m34 -3 c3 -6
-1 -7 -9 -4 -18 7 -21 14 -7 14 6 0 13 -4 16 -10z"/>
<path d="M6947 4539 c3 -10 9 -16 14 -13 13 8 11 21 -5 27 -10 4 -12 0 -9 -14z"/>
<path d="M7550 4555 c0 -7 30 -13 34 -7 3 4 -4 9 -15 9 -10 1 -19 0 -19 -2z"/>
<path d="M9507 4550 c8 -8 72 -6 67 2 -3 4 -20 7 -39 5 -18 -1 -31 -4 -28 -7z"/>
<path d="M6914 4522 c-9 -5 -8 -10 1 -19 11 -10 13 -9 12 7 -1 11 -1 20 -2 20
0 0 -5 -4 -11 -8z"/>
<path d="M9560 4511 c0 -5 8 -15 18 -22 15 -12 16 -12 5 2 -7 9 -10 19 -6 22
3 4 1 7 -5 7 -7 0 -12 -4 -12 -9z"/>
<path d="M6857 4476 c-4 -9 -13 -13 -21 -10 -8 3 -17 0 -21 -6 -4 -7 11 -10
50 -9 30 1 58 6 61 11 3 4 9 6 13 4 4 -3 13 -1 21 5 11 6 8 9 -12 9 -16 0 -28
-4 -28 -9 0 -11 -43 -1 -51 11 -3 6 -9 3 -12 -6z"/>
<path d="M6486 4437 c-8 -31 -7 -39 3 -33 12 8 21 45 11 51 -4 3 -10 -5 -14
-18z"/>
<path d="M6540 4426 c0 -2 7 -6 15 -10 8 -3 15 -1 15 4 0 6 -7 10 -15 10 -8 0
-15 -2 -15 -4z"/>
<path d="M9150 4356 c0 -2 8 -10 18 -17 15 -13 16 -12 3 4 -13 16 -21 21 -21
13z"/>
<path d="M9205 4300 c-3 -5 -1 -10 4 -10 6 0 11 5 11 10 0 6 -2 10 -4 10 -3 0
-8 -4 -11 -10z"/>
<path d="M9641 4224 c0 -11 3 -14 6 -6 3 7 2 16 -1 19 -3 4 -6 -2 -5 -13z"/>
<path d="M9812 4206 c20 -18 38 -24 72 -24 26 1 43 5 39 11 -9 16 -71 37 -105
37 l-33 -1 27 -23z"/>
<path d="M7750 4211 c0 -5 -10 -12 -22 -14 -20 -4 -19 -4 5 -6 18 -1 27 4 27
14 0 8 -2 15 -5 15 -3 0 -5 -4 -5 -9z"/>
<path d="M7775 4200 c-3 -6 1 -7 9 -4 18 7 21 14 7 14 -6 0 -13 -4 -16 -10z"/>
<path d="M9594 4145 c-11 -28 1 -37 21 -15 18 20 18 21 0 14 -13 -5 -16 -4
-11 4 4 7 5 12 1 12 -3 0 -8 -7 -11 -15z"/>
<path d="M9293 4114 c0 -7 6 -10 13 -7 6 2 15 0 19 -6 9 -16 25 -13 19 3 -7
18 -51 27 -51 10z"/>
<path d="M9911 4094 c0 -11 3 -14 6 -6 3 7 2 16 -1 19 -3 4 -6 -2 -5 -13z"/>
<path d="M6470 4080 c-9 -6 -10 -10 -3 -10 6 0 15 5 18 10 8 12 4 12 -15 0z"/>
<path d="M6386 4071 c-3 -5 5 -11 19 -13 30 -6 32 -2 6 12 -11 6 -22 6 -25 1z"/>
<path d="M9508 4059 c-10 -5 -18 -15 -18 -21 0 -7 5 -7 14 1 8 6 18 10 22 9 5
-2 10 1 12 7 5 14 -10 16 -30 4z"/>
<path d="M5861 4044 c0 -11 3 -14 6 -6 3 7 2 16 -1 19 -3 4 -6 -2 -5 -13z"/>
<path d="M9905 4049 c-4 -6 -5 -12 -2 -15 2 -3 7 2 10 11 7 17 1 20 -8 4z"/>
<path d="M9960 3996 c0 -2 7 -9 15 -16 9 -7 15 -8 15 -2 0 5 -7 12 -15 16 -8
3 -15 4 -15 2z"/>
<path d="M9996 3847 c3 -10 9 -15 12 -12 3 3 0 11 -7 18 -10 9 -11 8 -5 -6z"/>
<path d="M6825 3580 c3 -5 13 -10 21 -10 8 0 12 5 9 10 -3 6 -13 10 -21 10 -8
0 -12 -4 -9 -10z"/>
<path d="M7010 3554 l-25 -15 34 3 c19 2 36 9 39 16 5 16 -16 14 -48 -4z"/>
<path d="M6495 3540 c-3 -5 4 -12 16 -15 12 -4 18 -12 15 -21 -7 -19 8 -18 24
1 10 12 10 15 -4 15 -9 0 -16 4 -16 9 0 13 -28 22 -35 11z"/>
<path d="M7140 3540 c0 -6 7 -10 15 -10 8 0 15 2 15 4 0 2 -7 6 -15 10 -8 3
-15 1 -15 -4z"/>
<path d="M6860 3531 c1 -12 28 -41 38 -41 7 0 7 7 -1 23 -9 21 -38 34 -37 18z"/>
<path d="M6371 3516 c-9 -11 -8 -15 5 -20 22 -8 23 -8 20 9 -3 23 -12 27 -25
11z"/>
<path d="M6966 3511 c-6 -10 22 -37 29 -29 8 7 -5 38 -15 38 -5 0 -11 -4 -14
-9z"/>
<path d="M8658 3553 c7 -3 16 -2 19 1 4 3 -2 6 -13 5 -11 0 -14 -3 -6 -6z"/>
<path d="M9025 3359 c-10 -15 3 -25 16 -12 7 7 7 13 1 17 -6 3 -14 1 -17 -5z"/>
<path d="M7435 3300 c-8 -13 15 -24 27 -12 6 6 4 11 -6 15 -8 3 -18 2 -21 -3z"/>
<path d="M10373 2875 c0 -8 4 -15 9 -15 4 0 8 4 8 9 0 6 -4 12 -8 15 -5 3 -9
-1 -9 -9z"/>
<path d="M9748 2703 c7 -3 16 -2 19 1 4 3 -2 6 -13 5 -11 0 -14 -3 -6 -6z"/>
<path d="M9791 2647 c2 -1 13 -9 24 -17 19 -14 19 -14 6 3 -7 9 -18 17 -24 17
-6 0 -8 -1 -6 -3z"/>
<path d="M8770 2556 c0 -2 15 -9 32 -15 26 -9 30 -9 20 1 -11 11 -52 22 -52
14z"/>
<path d="M10025 2491 c-3 -6 -3 -16 0 -21 3 -6 -1 -13 -9 -16 -19 -7 -11 -24
10 -24 8 0 12 5 9 10 -3 6 -1 10 4 10 6 0 10 9 8 20 -4 25 -13 34 -22 21z"/>
<path d="M7451 2468 c-1 -13 -10 -18 -31 -18 -18 0 -33 -7 -38 -17 -10 -19 -8
-50 3 -61 4 -4 5 2 3 13 -2 15 3 21 20 23 16 2 22 8 18 18 -6 16 13 18 34 3
11 -8 12 -12 3 -16 -22 -8 -14 -23 12 -21 14 1 25 6 25 10 0 4 6 8 14 8 8 0
17 4 20 9 3 4 -6 6 -19 3 -26 -5 -50 13 -58 44 -4 16 -5 16 -6 2z"/>
<path d="M9940 2461 c0 -6 5 -13 10 -16 6 -3 10 1 10 9 0 9 -4 16 -10 16 -5 0
-10 -4 -10 -9z"/>
<path d="M9876 2441 c-3 -5 2 -8 11 -7 10 0 18 -4 18 -11 0 -6 3 -14 7 -18 9
-9 5 16 -5 33 -9 14 -24 16 -31 3z"/>
<path d="M7289 2438 c-6 -27 -5 -39 4 -45 7 -3 9 -3 5 2 -4 4 -3 14 3 21 7 8
7 14 -1 19 -5 3 -10 5 -11 3z"/>
<path d="M7570 2427 c0 -8 3 -16 6 -19 9 -10 42 3 48 18 4 10 -3 14 -24 14
-18 0 -30 -5 -30 -13z"/>
<path d="M7207 2423 c-3 -5 1 -14 9 -21 12 -10 14 -10 14 2 0 17 -16 30 -23
19z"/>
<path d="M7690 2410 c0 -28 12 -29 37 -5 l23 22 -30 1 c-23 0 -30 -4 -30 -18z"/>
<path d="M9828 2413 c7 -3 16 -2 19 1 4 3 -2 6 -13 5 -11 0 -14 -3 -6 -6z"/>
<path d="M7240 2383 c-8 -16 -15 -31 -17 -34 -1 -3 4 -6 11 -6 8 0 12 6 9 14
-3 9 3 13 22 13 15 0 24 -4 20 -10 -3 -5 -1 -10 6 -10 6 0 18 -8 26 -17 14
-17 14 -17 8 1 -4 16 0 14 19 -7 27 -29 47 -37 25 -10 -10 11 -10 14 -1 9 8
-5 12 -1 12 13 0 26 -17 35 -57 33 -23 -2 -36 3 -45 18 -17 26 -22 25 -38 -7z"/>
<path d="M8506 2402 c-3 -6 2 -16 13 -22 15 -7 22 -7 27 2 4 7 4 10 -1 6 -4
-4 -13 0 -20 9 -8 11 -14 12 -19 5z"/>
<path d="M9340 2400 c0 -5 6 -10 13 -10 9 0 8 -3 -2 -9 -8 -5 -9 -11 -3 -15 5
-3 15 1 22 8 9 12 7 17 -9 26 -14 7 -21 7 -21 0z"/>
<path d="M6465 2390 c-3 -6 1 -7 9 -4 18 7 21 14 7 14 -6 0 -13 -4 -16 -10z"/>
<path d="M7099 2383 c-9 -10 -7 -13 9 -13 11 0 22 6 25 13 3 8 -1 14 -9 14 -8
0 -19 -6 -25 -14z"/>
<path d="M8845 2384 c-10 -8 -15 -14 -9 -14 5 0 -2 -9 -15 -19 -20 -15 -22
-21 -12 -37 11 -17 11 -16 6 6 -5 22 -5 23 8 8 19 -24 40 -8 32 25 -5 19 -3
26 12 29 10 2 13 6 8 10 -6 3 -19 0 -30 -8z"/>
<path d="M8985 2386 c-13 -14 -15 -46 -4 -46 5 0 12 0 17 0 8 0 11 50 2 55 -3
1 -9 -2 -15 -9z"/>
<path d="M6495 2380 c-3 -5 -1 -10 4 -10 6 0 11 5 11 10 0 6 -2 10 -4 10 -3 0
-8 -4 -11 -10z"/>
<path d="M6766 2383 c-11 -12 -6 -19 14 -19 11 0 20 3 20 7 0 10 -27 19 -34
12z"/>
<path d="M6880 2381 c0 -6 4 -13 10 -16 6 -3 7 1 4 9 -7 18 -14 21 -14 7z"/>
<path d="M7424 2381 c4 -5 1 -12 -4 -14 -6 -3 -5 -4 2 -3 15 3 23 26 8 26 -6
0 -9 -4 -6 -9z"/>
<path d="M9392 2370 c0 -14 2 -19 5 -12 2 6 2 18 0 25 -3 6 -5 1 -5 -13z"/>
<path d="M9805 2380 c-13 -6 -15 -9 -5 -9 8 0 22 4 30 9 18 12 2 12 -25 0z"/>
<path d="M9895 2380 c-3 -5 1 -10 10 -10 9 0 13 5 10 10 -3 6 -8 10 -10 10 -2
0 -7 -4 -10 -10z"/>
<path d="M8932 2360 c-9 -15 -8 -19 4 -24 23 -9 24 -8 24 13 0 28 -14 33 -28
11z"/>
<path d="M7166 2349 c-3 -13 -7 -39 -9 -58 -2 -32 0 -34 31 -35 17 0 32 2 32
7 0 13 -5 22 -12 20 -4 -2 -5 15 -3 37 2 26 0 38 -7 34 -6 -4 -14 -1 -18 7 -6
9 -10 6 -14 -12z"/>
<path d="M8716 2355 c-3 -8 -12 -15 -20 -15 -8 0 -18 -5 -22 -12 -4 -7 -3 -8
4 -4 7 4 12 3 12 -3 0 -6 6 -8 14 -5 8 3 17 1 21 -5 3 -6 1 -11 -5 -11 -8 0
-8 -6 0 -20 6 -11 17 -20 25 -20 26 0 25 19 -2 44 -24 23 -26 29 -15 46 7 11
8 20 3 20 -5 0 -11 -7 -15 -15z"/>
<path d="M8750 2362 c0 -5 9 -17 20 -27 11 -10 20 -13 20 -7 0 7 -4 12 -10 12
-5 0 -10 7 -10 15 0 8 -4 15 -10 15 -5 0 -10 -4 -10 -8z"/>
<path d="M9195 2360 c3 -5 8 -10 11 -10 2 0 4 5 4 10 0 6 -5 10 -11 10 -5 0
-7 -4 -4 -10z"/>
<path d="M8605 2350 c-3 -5 -2 -10 4 -10 5 0 13 5 16 10 3 6 2 10 -4 10 -5 0
-13 -4 -16 -10z"/>
<path d="M9902 2347 c10 -8 16 -16 13 -19 -3 -2 2 -5 10 -5 17 0 28 24 15 32
-6 4 -10 1 -10 -5 0 -8 -6 -8 -22 0 -21 10 -21 10 -6 -3z"/>
<path d="M6556 2341 c-4 -6 -3 -11 3 -11 12 0 3 -81 -12 -99 -10 -12 -9 -12 9
-1 12 7 21 21 19 29 -1 9 1 23 5 31 10 19 -14 68 -24 51z"/>
<path d="M6715 2340 c-3 -5 -1 -10 4 -10 6 0 11 5 11 10 0 6 -2 10 -4 10 -3 0
-8 -4 -11 -10z"/>
<path d="M9009 2333 c-11 -13 -11 -17 -1 -20 6 -3 9 -10 6 -15 -4 -6 -2 -8 3
-5 14 9 23 46 13 52 -4 3 -14 -3 -21 -12z"/>
<path d="M8195 2330 c-3 -5 -1 -10 4 -10 6 0 11 5 11 10 0 6 -2 10 -4 10 -3 0
-8 -4 -11 -10z"/>
<path d="M8483 2325 c0 -11 4 -12 14 -4 7 6 13 13 13 15 0 2 -6 4 -13 4 -8 0
-14 -7 -14 -15z"/>
<path d="M9695 2331 c-3 -5 -2 -12 3 -15 5 -3 9 1 9 9 0 17 -3 19 -12 6z"/>
<path d="M9778 2330 c-2 -8 1 -21 9 -28 7 -8 11 -17 8 -22 -5 -8 20 -21 39
-19 5 0 13 -5 18 -13 8 -10 9 -9 5 3 -3 9 0 23 6 30 7 7 3 6 -8 -3 -13 -11
-26 -14 -34 -9 -11 7 -11 9 0 14 9 4 10 6 2 6 -7 1 -10 8 -7 19 5 14 4 14 -5
2 -8 -12 -11 -10 -19 10 -6 17 -10 20 -14 10z"/>
<path d="M6986 2321 c-3 -5 0 -11 7 -14 8 -3 14 1 14 9 0 16 -13 19 -21 5z"/>
<path d="M7403 2324 c7 -7 -17 -34 -31 -34 -6 0 -12 -7 -16 -15 -3 -8 -1 -15
3 -15 5 0 8 -11 7 -24 -3 -24 -2 -24 20 -9 13 8 24 22 24 31 0 8 3 12 7 9 10
-11 33 13 33 35 0 10 -4 17 -9 13 -5 -3 -12 -1 -16 5 -3 5 -11 10 -17 10 -6 0
-9 -3 -5 -6z m-2 -47 c-10 -9 -11 -8 -5 6 3 10 9 15 12 12 3 -3 0 -11 -7 -18z"/>
<path d="M8880 2320 c0 -5 5 -10 11 -10 5 0 7 5 4 10 -3 6 -8 10 -11 10 -2 0
-4 -4 -4 -10z"/>
<path d="M9340 2320 c-13 -8 -12 -10 3 -10 9 0 17 5 17 10 0 12 -1 12 -20 0z"/>
<path d="M9720 2315 c0 -8 4 -15 10 -15 5 0 7 7 4 15 -4 8 -8 15 -10 15 -2 0
-4 -7 -4 -15z"/>
<path d="M9850 2321 c0 -6 4 -13 10 -16 6 -3 7 1 4 9 -7 18 -14 21 -14 7z"/>
<path d="M6750 2309 c0 -5 5 -7 10 -4 6 3 10 8 10 11 0 2 -4 4 -10 4 -5 0 -10
-5 -10 -11z"/>
<path d="M7070 2300 c0 -11 2 -20 4 -20 2 0 6 9 9 20 3 11 1 20 -4 20 -5 0 -9
-9 -9 -20z"/>
<path d="M7241 2304 c0 -11 3 -14 6 -6 3 7 2 16 -1 19 -3 4 -6 -2 -5 -13z"/>
<path d="M7330 2312 c0 -5 -9 -8 -20 -5 -12 3 -20 0 -20 -7 0 -6 9 -14 19 -17
11 -3 17 -11 15 -18 -3 -7 -14 -11 -25 -8 -10 3 -16 9 -13 14 8 13 -10 11 -24
-3 -17 -17 -15 -43 6 -59 14 -11 15 -11 5 1 -7 8 -13 23 -13 35 0 11 4 15 8
10 4 -6 20 -11 35 -12 21 -1 31 6 42 27 13 24 13 30 0 40 -9 8 -15 8 -15 2z"/>
<path d="M9883 2305 c0 -8 4 -12 9 -9 4 3 8 9 8 15 0 5 -4 9 -8 9 -5 0 -9 -7
-9 -15z"/>
<path d="M6667 2289 c-10 -11 -17 -28 -15 -36 2 -10 10 -2 20 21 20 41 19 44
-5 15z"/>
<path d="M8779 2308 c-5 -17 -4 -50 3 -54 4 -3 8 9 8 25 0 17 -2 31 -5 31 -3
0 -5 -1 -6 -2z"/>
<path d="M6807 2293 c-4 -3 -7 -11 -7 -17 0 -6 5 -5 12 2 6 6 9 14 7 17 -3 3
-9 2 -12 -2z"/>
<path d="M7126 2287 c3 -10 9 -15 12 -12 3 3 0 11 -7 18 -10 9 -11 8 -5 -6z"/>
<path d="M6690 2275 c-9 -11 -10 -19 -3 -26 7 -7 12 -2 15 15 6 30 5 31 -12
11z"/>
<path d="M8928 2283 c7 -3 16 -2 19 1 4 3 -2 6 -13 5 -11 0 -14 -3 -6 -6z"/>
<path d="M7597 2255 c3 -8 9 -12 14 -9 12 7 11 11 -5 17 -10 4 -13 1 -9 -8z"/>
<path d="M8570 2260 c8 -5 22 -10 30 -10 13 0 13 1 0 10 -8 5 -22 10 -30 10
-13 0 -13 -1 0 -10z"/>
<path d="M9346 2262 c-2 -4 -1 -14 5 -22 7 -12 9 -11 9 5 l1 20 15 -20 c8 -11
22 -19 30 -17 19 4 18 -37 -2 -59 -12 -14 -13 -21 -4 -36 10 -16 11 -16 7 5
-4 15 1 26 13 32 28 15 31 13 25 -17 -4 -23 -4 -25 4 -8 13 26 14 58 2 50 -15
-9 -25 15 -12 28 9 9 14 8 21 -3 5 -8 11 -12 14 -10 2 3 -2 14 -10 25 -13 17
-16 18 -25 5 -8 -11 -12 -12 -16 -2 -2 6 -8 10 -13 7 -4 -3 -13 2 -20 10 -13
16 -36 20 -44 7z"/>
<path d="M6530 2249 c0 -5 5 -7 10 -4 6 3 10 8 10 11 0 2 -4 4 -10 4 -5 0 -10
-5 -10 -11z"/>
<path d="M7090 2245 c-7 -8 -8 -15 -2 -15 5 0 15 7 22 15 7 8 8 15 2 15 -5 0
-15 -7 -22 -15z"/>
<path d="M8625 2249 c-4 -6 -4 -13 -1 -16 3 -4 6 -1 6 7 0 10 3 10 15 0 13
-11 14 -10 9 4 -7 18 -20 21 -29 5z"/>
<path d="M7623 2239 c-7 -7 -13 -18 -13 -23 0 -6 5 -4 10 4 8 13 11 11 16 -7
4 -13 11 -23 17 -23 6 0 8 -3 4 -6 -3 -4 0 -13 8 -20 7 -8 15 -19 18 -26 4
-10 7 -10 18 1 9 9 10 11 1 7 -20 -12 -34 36 -14 52 14 11 13 12 -7 12 -14 0
-20 4 -15 12 5 7 2 9 -9 5 -10 -4 -17 0 -19 9 -2 12 -5 13 -15 3z"/>
<path d="M8950 2240 c0 -5 5 -10 11 -10 5 0 7 5 4 10 -3 6 -8 10 -11 10 -2 0
-4 -4 -4 -10z"/>
<path d="M8994 2238 c-4 -6 -3 -8 4 -4 5 3 13 0 15 -6 3 -8 6 -6 6 5 1 19 -14
23 -25 5z"/>
<path d="M6667 2220 c-3 -11 -2 -20 2 -20 4 0 7 -9 7 -20 0 -11 -3 -20 -6 -20
-4 0 -5 -13 -2 -30 2 -16 8 -28 12 -25 4 2 5 15 3 29 -3 13 0 27 6 30 15 10
13 37 -3 59 -13 17 -14 16 -19 -3z"/>
<path d="M6712 2210 c0 -19 2 -27 5 -17 2 9 2 25 0 35 -3 9 -5 1 -5 -18z"/>
<path d="M6780 2230 c0 -16 28 -32 35 -20 4 6 4 14 1 18 -10 9 -36 11 -36 2z"/>
<path d="M8059 2218 c-7 -13 -17 -26 -23 -30 -8 -6 -8 -8 0 -8 13 0 28 17 37
43 9 24 0 21 -14 -5z"/>
<path d="M6883 2213 c-25 -5 -32 -30 -8 -30 8 0 15 4 15 9 0 4 7 8 15 8 8 0
15 5 15 10 0 6 -3 9 -7 9 -5 -1 -18 -4 -30 -6z"/>
<path d="M7140 2210 c0 -5 5 -10 11 -10 5 0 7 5 4 10 -3 6 -8 10 -11 10 -2 0
-4 -4 -4 -10z"/>
<path d="M7447 2204 c4 -11 -2 -23 -16 -33 -20 -16 -21 -19 -7 -30 11 -9 16
-10 16 -2 0 6 5 11 11 11 5 0 7 -6 3 -12 -5 -9 -2 -8 9 1 12 9 14 17 7 26 -5
6 -7 15 -3 18 12 12 23 7 23 -10 0 -9 3 -14 6 -10 9 9 -5 57 -17 57 -6 0 -7
-5 -3 -11 4 -8 0 -8 -15 0 -17 10 -20 9 -14 -5z"/>
<path d="M8617 2201 c-10 -12 -8 -13 13 -6 34 10 44 21 19 21 -11 0 -25 -7
-32 -15z"/>
<path d="M9376 2205 c5 -13 4 -16 -4 -11 -7 4 -12 2 -12 -3 0 -13 27 -15 34
-2 3 5 -1 14 -9 21 -13 11 -14 10 -9 -5z"/>
<path d="M9806 2205 c-3 -9 0 -15 9 -15 16 0 20 16 6 24 -5 3 -11 -1 -15 -9z"/>
<path d="M8071 2187 c-15 -19 36 -87 64 -85 14 0 15 2 4 5 -10 2 -16 15 -16
38 0 42 -8 52 -28 35 -13 -11 -14 -10 -9 4 7 19 1 21 -15 3z"/>
<path d="M7196 2174 c-3 -8 -6 -25 -5 -37 0 -21 1 -21 9 -2 8 19 9 19 9 -3 1
-13 5 -20 11 -17 14 9 12 37 -4 58 -12 16 -14 16 -20 1z"/>
<path d="M7234 2174 c3 -9 6 -23 6 -32 0 -15 2 -15 10 -2 6 10 10 11 10 3 0
-7 5 -13 10 -13 6 0 10 12 10 26 0 14 -4 23 -10 19 -5 -3 -10 -1 -10 4 0 6 -7
11 -16 11 -11 0 -14 -5 -10 -16z"/>
<path d="M7335 2180 c-8 -13 15 -13 35 0 12 8 11 10 -7 10 -12 0 -25 -4 -28
-10z"/>
<path d="M8636 2173 c-6 -14 -5 -15 5 -6 7 7 10 15 7 18 -3 3 -9 -2 -12 -12z"/>
<path d="M9495 2180 c-3 -5 -1 -10 4 -10 6 0 11 5 11 10 0 6 -2 10 -4 10 -3 0
-8 -4 -11 -10z"/>
<path d="M7551 2163 c7 -10 15 -20 16 -22 3 -5 33 20 33 28 0 4 -14 8 -31 9
-29 2 -31 1 -18 -15z"/>
<path d="M9272 2166 c7 -8 15 -12 17 -11 5 6 -10 25 -20 25 -5 0 -4 -6 3 -14z"/>
<path d="M6952 2158 c-7 -7 -12 -16 -12 -21 0 -5 7 -1 16 8 9 9 14 18 12 20
-2 3 -10 -1 -16 -7z"/>
<path d="M7617 2155 c-4 -8 -2 -17 3 -20 6 -4 10 3 10 14 0 25 -6 27 -13 6z"/>
<path d="M8132 2158 c2 -7 11 -21 21 -32 9 -11 17 -23 17 -26 0 -4 7 -7 15 -7
8 0 12 4 9 9 -3 4 3 11 12 15 16 6 16 7 -2 14 -10 3 -25 1 -33 -5 -12 -9 -13
-8 -8 6 4 12 0 21 -14 28 -14 8 -19 8 -17 -2z"/>
<path d="M8695 2159 c-4 -6 -5 -12 -2 -15 2 -3 7 2 10 11 7 17 1 20 -8 4z"/>
<path d="M9530 2151 c0 -7 -4 -10 -8 -7 -4 2 -14 0 -22 -6 -12 -8 -12 -9 3 -4
10 3 17 0 17 -7 0 -7 5 -4 11 6 6 10 8 21 5 24 -3 4 -6 1 -6 -6z"/>
<path d="M9035 2141 c-3 -5 -1 -12 5 -16 5 -3 10 1 10 9 0 18 -6 21 -15 7z"/>
<path d="M9066 2137 c3 -10 9 -15 12 -12 3 3 0 11 -7 18 -10 9 -11 8 -5 -6z"/>
<path d="M9249 2123 c-12 -15 -12 -16 4 -10 10 4 23 7 28 7 6 0 7 5 4 10 -9
15 -21 12 -36 -7z"/>
<path d="M9581 2126 c-14 -17 -5 -43 20 -57 27 -14 24 5 -3 23 -20 13 -21 17
-9 32 7 9 11 16 8 16 -2 0 -10 -6 -16 -14z"/>
<path d="M7307 2124 c-7 -8 3 -34 13 -34 9 0 8 26 -1 35 -3 3 -8 2 -12 -1z"/>
<path d="M7878 2123 c-16 -2 -28 -9 -28 -15 0 -5 6 -8 14 -5 8 3 16 1 19 -6 2
-7 9 -2 16 11 6 12 10 21 9 21 -2 -1 -15 -4 -30 -6z"/>
<path d="M8046 2121 c-4 -7 -5 -15 -2 -18 9 -9 19 4 14 18 -4 11 -6 11 -12 0z"/>
<path d="M8365 2120 c-3 -5 -1 -10 4 -10 6 0 11 5 11 10 0 6 -2 10 -4 10 -3 0
-8 -4 -11 -10z"/>
<path d="M7650 2106 c0 -2 9 -6 20 -9 11 -3 18 -1 14 4 -5 9 -34 13 -34 5z"/>
<path d="M9267 2103 c-10 -9 -9 -23 2 -23 5 0 11 7 15 15 5 15 -5 20 -17 8z"/>
<path d="M7692 2084 c-15 -17 -8 -48 10 -42 11 4 19 58 8 58 -3 -1 -11 -8 -18
-16z"/>
<path d="M8318 2093 c7 -3 16 -2 19 1 4 3 -2 6 -13 5 -11 0 -14 -3 -6 -6z"/>
<path d="M8380 2089 c0 -5 5 -7 10 -4 6 3 10 8 10 11 0 2 -4 4 -10 4 -5 0 -10
-5 -10 -11z"/>
<path d="M9300 2085 c0 -8 2 -15 4 -15 2 0 6 7 10 15 3 8 1 15 -4 15 -6 0 -10
-7 -10 -15z"/>
<path d="M8417 2083 c-4 -3 -7 -11 -7 -17 0 -6 5 -5 12 2 6 6 9 14 7 17 -3 3
-9 2 -12 -2z"/>
<path d="M9155 2079 c-4 -6 -5 -12 -2 -15 2 -3 7 2 10 11 7 17 1 20 -8 4z"/>
<path d="M8296 2064 c-8 -21 -8 -24 3 -24 12 0 22 28 12 35 -5 3 -12 -2 -15
-11z"/>
<path d="M7229 2033 c-13 -16 -12 -17 4 -4 16 13 21 21 13 21 -2 0 -10 -8 -17
-17z"/>
<path d="M9260 2030 c0 -11 2 -20 4 -20 2 0 6 9 9 20 3 11 1 20 -4 20 -5 0 -9
-9 -9 -20z"/>
<path d="M6975 2030 c3 -5 8 -10 11 -10 2 0 4 5 4 10 0 6 -5 10 -11 10 -5 0
-7 -4 -4 -10z"/>
<path d="M9154 2018 c-3 -4 -1 -8 5 -8 5 0 16 -3 25 -6 10 -4 16 -1 16 8 0 14
-38 19 -46 6z"/>
<path d="M8450 1974 c0 -8 5 -12 10 -9 6 4 8 11 5 16 -9 14 -15 11 -15 -7z"/>
<path d="M9275 1960 c-3 -5 -1 -10 4 -10 6 0 11 5 11 10 0 6 -2 10 -4 10 -3 0
-8 -4 -11 -10z"/>
<path d="M7176 1548 c3 -5 10 -6 15 -3 13 9 11 12 -6 12 -8 0 -12 -4 -9 -9z"/>
</g>
</svg>
